<?xml version="1.0" standalone="no"?>
<!DOCTYPE svg PUBLIC "-//W3C//DTD SVG 20010904//EN"
 "http://www.w3.org/TR/2001/REC-SVG-20010904/DTD/svg10.dtd">
<svg version="1.0" xmlns="http://www.w3.org/2000/svg"
 width="963.000000pt" height="830.000000pt" viewBox="0 0 963.000000 830.000000"
 preserveAspectRatio="xMidYMid meet">

<g transform="translate(0.000000,830.000000) scale(0.100000,-0.100000)"
fill="#000000" stroke="none">
<path d="M0 4150 l0 -4150 1143 2 1142 3 -3 55 c-2 30 -7 59 -12 65 -10 12 -7
66 5 84 3 6 -3 15 -13 20 -15 8 -21 26 -26 68 -12 116 -16 128 -47 142 -21 9
-30 21 -35 49 -9 53 -12 55 -44 32 -15 -11 -36 -20 -45 -20 -14 0 -16 -6 -10
-36 3 -20 15 -48 25 -63 10 -14 22 -47 26 -73 5 -40 4 -48 -10 -48 -9 0 -18
12 -22 27 -3 16 -13 52 -21 80 -9 29 -16 62 -17 72 -1 18 -37 61 -51 61 -4 0
-14 9 -23 20 -15 18 -23 20 -57 13 -39 -9 -40 -10 -45 -56 -3 -26 -9 -48 -15
-49 -5 0 -21 21 -34 46 l-25 48 -50 -6 c-99 -10 -135 -18 -147 -32 -6 -8 -18
-14 -26 -14 -8 0 -21 -7 -29 -15 -9 -8 -28 -15 -44 -15 -16 0 -31 -4 -34 -9
-3 -5 -22 -12 -41 -15 -23 -5 -35 -13 -35 -23 0 -9 -12 -27 -26 -40 -15 -13
-23 -30 -20 -38 3 -8 1 -15 -4 -15 -15 0 -12 37 5 54 21 21 20 75 -2 83 -27 9
-53 35 -47 45 3 5 -2 18 -11 28 -15 17 -15 19 6 34 l23 16 -21 22 c-27 30 -37
73 -20 90 11 11 2 13 -52 13 -42 -1 -66 -5 -69 -13 -2 -7 -12 -12 -22 -12 -30
0 -68 -21 -84 -45 -14 -21 -13 -23 6 -28 18 -5 19 -8 8 -21 -7 -9 -18 -16 -24
-16 -17 0 -48 40 -42 55 2 7 1 28 -3 46 -4 19 -4 46 0 62 5 18 3 32 -6 41 -11
11 -9 18 11 42 30 37 30 46 0 38 -13 -3 -27 -1 -30 5 -4 6 0 11 9 11 11 0 15
5 12 15 -4 8 -2 17 3 20 7 4 7 13 0 24 -5 10 -7 21 -3 24 3 4 1 13 -5 20 -18
21 -13 124 7 149 15 18 16 29 8 77 -6 31 -10 72 -9 91 0 19 1 63 2 97 1 34 -1
67 -5 72 -3 6 -1 28 5 50 7 28 7 54 0 86 -7 29 -7 59 -1 79 5 21 4 56 -4 98
-8 43 -9 72 -3 83 6 10 6 26 -1 43 -12 33 -25 175 -31 362 -1 30 -7 60 -12 67
-6 7 -6 19 1 31 6 11 8 22 5 25 -9 8 -16 86 -22 230 -2 52 -21 62 -32 16 -5
-20 -7 -21 -13 -6 -3 9 -4 31 0 47 5 28 7 29 18 13 8 -10 17 -15 21 -11 9 9 8
384 -1 398 -3 5 -1 19 5 31 6 11 9 28 5 37 -8 19 -14 78 -17 172 -3 58 -5 65
-23 63 -27 -2 -34 14 -21 49 9 25 8 32 -7 42 -9 7 -17 21 -17 31 0 13 5 16 25
11 31 -8 34 15 5 35 -17 12 -21 28 -26 102 -4 74 -3 87 11 87 21 0 19 9 -10
36 -28 25 -24 54 6 54 25 0 24 11 -3 34 -20 17 -20 20 -5 31 15 11 16 14 2 25
-8 7 -15 21 -15 31 0 11 -4 19 -10 19 -5 0 -10 7 -10 17 0 14 2 14 20 -2 19
-17 20 -17 26 0 5 11 1 22 -9 30 -10 7 -17 17 -17 24 0 6 -4 11 -10 11 -5 0
-10 7 -10 15 0 11 7 14 24 9 21 -5 23 -3 18 21 -3 19 -8 23 -15 16 -16 -16
-24 -13 -30 10 -4 15 0 23 14 26 24 7 24 19 2 32 -14 7 -15 13 -7 21 8 8 14 9
18 1 12 -18 23 -12 28 13 4 20 0 25 -24 30 -20 4 -28 11 -28 26 0 18 2 19 20
8 26 -16 40 1 40 50 0 33 -14 43 -24 17 -3 -8 -12 -15 -21 -15 -12 0 -13 4 -6
18 6 11 6 24 0 33 -16 25 -10 49 11 49 15 0 20 -7 20 -25 0 -14 5 -25 10 -25
6 0 10 14 10 31 0 21 -6 32 -18 36 -10 2 -24 14 -31 25 -11 18 -11 22 4 30 14
9 15 12 2 26 -8 10 -17 28 -19 42 -3 14 -9 33 -13 43 -5 12 -3 17 9 17 21 0
21 19 0 27 -12 4 -14 14 -9 43 4 23 2 41 -4 45 -16 9 -13 35 3 35 9 0 12 7 9
20 -3 11 -12 20 -19 20 -19 0 -18 19 1 26 12 5 12 9 -2 31 -12 19 -13 27 -4
32 14 9 4 41 -13 41 -6 0 -2 7 8 15 17 13 18 18 7 39 -7 13 -14 39 -16 57 -2
30 -5 34 -29 31 -20 -3 -29 3 -37 22 -6 13 -9 32 -5 42 6 16 8 16 26 -1 25
-23 34 -15 25 23 -5 23 -11 29 -25 25 -12 -3 -22 3 -30 17 -13 25 -7 35 23 35
19 0 22 6 25 48 2 28 -1 47 -7 47 -6 0 -11 -5 -11 -12 0 -6 -8 -4 -19 6 -18
17 -20 31 -12 100 1 5 7 3 14 -3 19 -15 27 -4 27 36 0 23 -5 33 -15 33 -9 0
-15 -6 -14 -12 3 -27 -2 -38 -16 -38 -8 0 -16 6 -16 13 -2 22 -4 31 -18 87 -7
30 -17 60 -21 65 -4 6 -10 22 -14 36 -7 34 -53 66 -69 50 -9 -9 -14 -3 -23 21
-13 40 -34 49 -34 14 0 -14 -4 -26 -10 -26 -5 0 -10 -22 -10 -50 0 -27 -4 -50
-8 -50 -4 0 -5 37 -1 81 8 96 3 122 -18 93 -14 -18 -15 -18 -27 -1 -7 9 -18
17 -23 17 -6 0 -16 7 -23 15 -9 11 -23 13 -54 9 -22 -4 -46 -11 -52 -15 -6 -5
-36 -7 -67 -4 -31 2 -59 0 -61 -4 -3 -5 -25 -7 -48 -6 l-43 2 -3 320 -2 319
25 14 c14 7 25 17 25 21 0 14 124 49 180 50 64 3 136 -16 166 -43 12 -11 30
-36 40 -56 11 -20 30 -46 43 -59 21 -20 25 -21 39 -7 13 13 13 17 1 24 -22 14
-7 18 46 10 31 -5 39 -8 21 -9 -16 0 -27 -3 -24 -6 10 -11 128 8 128 20 0 17
44 24 107 18 35 -4 53 -10 53 -19 0 -10 13 -14 40 -14 22 0 40 5 40 10 0 6 15
10 33 10 47 0 127 29 127 46 0 11 18 14 80 14 47 0 80 4 80 10 0 6 -18 10 -40
10 -22 0 -40 4 -40 8 0 12 216 36 232 26 6 -4 29 -7 50 -5 26 1 38 -2 38 -11
0 -7 14 -19 30 -26 35 -16 39 -32 10 -39 -13 -3 -20 -14 -20 -29 0 -15 -6 -24
-15 -24 -31 0 3 -37 40 -44 36 -7 49 -26 17 -26 -9 0 -23 -9 -29 -19 -11 -17
-9 -20 9 -23 34 -5 30 -21 -12 -50 -22 -15 -40 -33 -40 -40 0 -6 3 -8 7 -5 3
4 14 0 24 -9 16 -15 17 -18 3 -40 -9 -13 -13 -32 -9 -44 4 -11 2 -20 -4 -20
-20 0 -12 -32 9 -37 20 -5 28 -39 10 -45 -5 -1 -11 -19 -13 -38 -2 -19 -9 -45
-15 -56 -10 -19 -9 -23 10 -27 19 -5 20 -11 15 -59 -4 -29 -11 -54 -17 -56
-13 -5 -13 -32 0 -32 6 0 10 -20 10 -44 0 -30 5 -46 15 -50 12 -4 14 -10 5
-25 -15 -29 -13 -51 5 -45 19 8 29 -19 16 -44 -8 -15 -6 -28 8 -55 15 -29 18
-55 16 -119 -2 -46 0 -87 4 -93 3 -5 7 -111 8 -235 1 -124 6 -261 11 -305 27
-224 33 -324 29 -494 -5 -211 -11 -285 -29 -356 -6 -27 -11 -56 -9 -63 1 -7
-5 -36 -13 -65 -8 -29 -18 -78 -21 -109 -4 -32 -11 -56 -15 -53 -4 3 -13 -2
-19 -9 -10 -11 -8 -16 5 -24 16 -9 16 -15 5 -68 -17 -78 -33 -124 -44 -124 -4
0 -7 -8 -5 -17 1 -10 -2 -25 -7 -33 -5 -8 -10 -28 -12 -45 -6 -56 -8 -58 -71
-50 -31 4 -60 12 -64 19 -6 8 -8 7 -8 -2 0 -8 9 -16 20 -19 11 -3 20 -9 20
-14 0 -12 -67 -22 -87 -13 -10 4 -20 8 -23 8 -3 1 -10 5 -17 9 -15 9 -63 -2
-63 -14 0 -5 14 -9 30 -9 49 0 35 -14 -35 -35 -62 -19 -66 -22 -90 -72 -18
-35 -33 -53 -48 -55 -21 -3 -22 -7 -10 -49 3 -10 -3 -18 -16 -22 -18 -4 -21
-13 -21 -44 1 -21 1 -112 1 -203 0 -197 3 -235 18 -254 6 -7 10 -24 9 -36 -3
-21 5 -26 62 -42 36 -10 95 -28 132 -40 51 -15 80 -19 121 -14 48 6 99 1 271
-29 22 -4 27 -2 22 10 -7 20 44 20 121 0 144 -39 336 -52 368 -25 10 8 25 6
62 -13 26 -13 72 -32 101 -42 43 -16 52 -23 52 -42 0 -38 -27 -82 -47 -77 -10
2 -88 15 -173 29 -85 14 -186 32 -225 39 -159 31 -243 46 -298 51 -31 4 -63
13 -71 20 -17 17 -92 33 -82 17 14 -23 -47 -24 -214 -2 -95 12 -178 19 -186
16 -12 -4 -15 -25 -14 -98 1 -51 1 -111 1 -132 -1 -23 5 -46 14 -56 11 -12 13
-20 6 -25 -19 -11 -12 -34 17 -49 15 -8 70 -19 122 -25 52 -7 111 -16 130 -21
19 -4 60 -11 90 -15 103 -12 352 -66 434 -95 44 -16 126 -38 181 -50 55 -12
120 -28 145 -35 25 -7 67 -16 94 -20 36 -5 45 -10 37 -18 -8 -8 -39 -8 -119 2
-59 7 -127 15 -152 17 -25 3 -65 9 -89 14 -25 4 -53 5 -64 1 -15 -6 3 -16 74
-46 52 -21 112 -48 134 -60 37 -21 143 -56 357 -120 86 -25 312 -76 398 -89
75 -11 412 -96 460 -116 25 -10 83 -26 130 -35 47 -9 175 -45 285 -80 229 -73
230 -73 430 -121 162 -39 294 -63 505 -94 147 -22 271 -44 365 -65 33 -7 116
-21 185 -31 249 -34 625 3 803 78 28 12 47 27 47 37 1 18 53 55 94 65 15 4 31
17 36 31 5 14 15 25 22 25 7 0 35 16 62 35 27 19 56 35 63 35 24 0 110 48 141
79 32 32 49 93 37 131 -6 19 -8 19 -58 -9 -91 -50 -261 -98 -479 -135 -43 -8
-49 4 -15 28 21 16 21 16 -23 12 l-45 -5 53 17 c28 9 52 21 52 27 0 14 37 30
128 55 42 12 112 36 155 52 80 31 170 89 150 95 -15 5 -100 -23 -131 -43 -13
-8 -32 -12 -42 -9 -14 4 -20 2 -20 -8 0 -16 -36 -34 -105 -52 -68 -18 -98 -20
-182 -11 -64 7 -72 10 -77 32 -5 17 -13 24 -31 24 -44 0 -27 19 23 25 51 6
148 25 257 49 122 27 290 123 271 154 -8 13 -112 64 -181 89 l-50 19 0 126 c0
112 -2 130 -21 154 -33 45 -70 67 -122 72 -79 7 -143 -13 -325 -102 -203 -99
-261 -124 -382 -161 -103 -31 -295 -104 -310 -116 -5 -5 -16 -9 -24 -9 -27 0
9 24 79 54 36 15 82 39 102 53 21 14 67 32 104 39 36 8 94 25 128 39 34 14 66
25 71 25 5 0 90 40 189 90 100 49 206 94 236 101 86 18 88 19 68 30 -27 15
-174 -25 -243 -67 -11 -6 -31 -15 -43 -19 -13 -4 -45 -20 -70 -36 -82 -51
-237 -92 -216 -57 5 8 0 9 -17 5 -20 -5 -34 4 -89 61 -36 37 -83 98 -105 137
-22 38 -59 89 -81 113 -23 24 -37 45 -30 47 106 36 143 46 160 41 22 -6 156
30 156 42 0 4 -14 23 -31 42 -17 19 -48 61 -70 93 -55 79 -76 91 -150 84 -63
-6 -69 1 -16 19 36 12 48 34 19 34 -11 0 -78 -18 -149 -40 -135 -43 -350 -93
-362 -86 -10 7 -35 68 -61 151 -12 39 -27 77 -34 85 -8 8 -16 34 -20 58 -6 38
-48 125 -100 204 -20 30 -15 35 38 36 22 1 61 9 88 18 l48 15 -3 62 -2 61 38
1 c20 1 37 -2 37 -6 0 -4 7 -9 14 -12 11 -4 13 -1 9 11 -10 26 -25 37 -58 40
-16 1 -35 4 -41 6 -7 3 -10 53 -8 158 3 156 6 205 24 338 6 41 14 109 20 150
18 143 30 211 49 273 11 34 25 87 31 117 13 59 34 119 56 162 8 14 17 54 21
89 5 50 4 61 -8 57 -16 -5 -51 -123 -45 -155 2 -13 -3 -28 -10 -34 -8 -6 -14
-22 -14 -36 0 -13 -8 -38 -17 -56 -9 -18 -20 -48 -24 -67 -57 -265 -139 -622
-145 -631 -3 -5 -1 -15 5 -22 6 -8 6 -18 1 -27 -6 -8 -10 -56 -10 -107 0 -78
-2 -91 -15 -87 -19 8 -19 -13 0 -50 16 -31 20 -76 6 -76 -4 0 -8 -30 -7 -68 0
-74 -8 -99 -28 -83 -21 17 -36 411 -21 544 4 34 18 114 31 177 22 107 38 171
94 375 12 44 29 107 37 140 7 33 23 72 33 87 11 15 20 38 20 50 0 13 11 43 24
68 13 25 26 58 30 73 4 15 11 25 16 22 6 -3 7 1 4 9 -5 12 0 16 20 16 l26 0
-20 20 c-23 23 -24 29 -10 50 9 13 11 13 19 0 6 -8 13 -11 18 -7 4 4 2 17 -5
28 -9 14 -10 24 -3 33 5 6 10 30 9 53 0 23 3 46 6 52 4 5 9 34 12 63 3 29 9
67 14 83 21 70 30 116 45 213 8 57 27 136 41 175 14 40 26 83 26 96 0 14 10
32 21 42 12 9 28 37 36 63 7 25 17 46 21 46 5 0 15 3 23 6 10 4 25 -12 48 -50
21 -35 43 -59 61 -65 39 -14 98 -4 133 21 73 53 126 105 137 136 15 39 26 41
34 5 3 -16 10 -38 15 -51 5 -13 9 -36 9 -51 0 -16 7 -44 14 -63 8 -19 12 -45
9 -56 -3 -12 0 -34 6 -50 10 -25 61 -310 81 -452 26 -193 33 -234 56 -330 31
-126 90 -281 141 -370 24 -41 82 -109 158 -185 97 -98 134 -128 195 -158 154
-77 298 -75 437 6 106 63 111 66 96 73 -7 3 -13 12 -13 20 0 8 -6 17 -14 20
-8 3 -25 30 -37 60 -13 30 -26 54 -30 54 -4 0 -20 -11 -36 -24 -15 -12 -59
-35 -97 -50 -76 -30 -127 -30 -196 2 -46 21 -100 64 -100 79 0 7 -13 19 -30
28 -16 8 -33 27 -36 40 -4 15 -13 25 -24 25 -10 0 -20 8 -23 19 -2 10 -17 25
-33 32 -16 9 -28 23 -29 36 -1 12 -14 41 -30 65 -25 36 -29 54 -31 116 -2 51
-8 79 -18 91 -9 10 -16 23 -16 29 0 7 -5 12 -11 12 -7 0 -9 10 -5 26 4 15 2
32 -5 40 -8 10 -8 14 0 14 16 0 14 14 -10 65 -12 25 -20 47 -18 48 2 2 18 9
34 16 l30 13 -25 10 c-33 12 -35 15 -20 33 8 10 9 15 1 15 -19 0 -12 18 9 25
32 10 23 25 -14 25 -51 0 -51 14 -1 29 30 9 42 17 38 27 -3 8 0 14 7 14 6 0 8
4 5 10 -3 6 -24 10 -46 10 -50 0 -51 18 0 26 21 3 44 10 52 15 21 14 -7 29
-54 29 -40 0 -49 22 -11 28 53 8 64 13 64 32 0 18 -7 20 -55 20 -31 0 -55 4
-55 10 0 15 44 30 88 31 l37 1 -48 20 c-58 25 -61 52 -7 55 63 3 67 4 45 13
-11 5 -32 9 -47 9 -36 1 -41 40 -5 42 14 1 10 4 -12 8 -19 3 -36 12 -39 18 -5
17 32 30 108 39 34 4 58 10 53 15 -11 11 -82 14 -120 5 -28 -6 -33 -5 -33 11
0 11 14 27 33 38 55 32 73 65 32 57 -40 -7 -185 18 -230 40 -46 23 -124 80
-125 90 0 4 -13 27 -30 51 -45 67 -44 87 8 114 2 1 -8 19 -22 40 -31 44 -61
137 -50 155 4 6 6 34 5 61 -2 37 1 48 11 45 7 -3 16 -21 19 -40 6 -39 34 -88
49 -88 21 0 7 98 -22 154 -6 11 -6 22 0 28 13 13 42 -18 49 -53 6 -31 25 -41
22 -11 -1 9 -1 30 0 46 1 25 3 27 18 15 9 -8 17 -12 19 -9 1 3 6 2 10 -2 4 -5
0 -8 -9 -8 -12 0 -17 -8 -17 -26 0 -15 -8 -32 -17 -39 -14 -11 -15 -17 -6 -39
7 -14 15 -49 19 -78 l7 -53 -23 20 -23 20 6 -25 c10 -42 24 -94 31 -111 4 -10
1 -23 -8 -32 -20 -20 -9 -51 35 -101 49 -57 108 -87 178 -91 52 -3 61 -1 61
13 0 10 9 25 20 35 20 17 19 44 -1 32 -5 -4 -14 7 -20 22 -6 15 -16 36 -21 47
-6 12 -6 21 0 25 14 9 13 73 -2 85 -12 10 -39 90 -45 135 0 6 -13 16 -28 23
-15 7 -29 22 -31 33 -2 11 -10 27 -18 36 -8 9 -12 24 -8 33 5 12 2 15 -9 10
-18 -7 -48 53 -44 89 2 18 -3 22 -25 20 -32 -2 -36 11 -12 35 11 10 13 17 5
20 -6 2 -11 11 -12 20 0 11 -2 12 -6 5 -2 -7 -8 -13 -12 -13 -9 0 -91 162 -91
179 0 22 19 10 40 -24 12 -19 25 -33 30 -30 4 3 30 -39 56 -92 29 -58 50 -91
52 -80 2 10 -6 38 -18 63 -12 25 -33 75 -46 112 -19 55 -27 67 -45 67 -13 0
-24 6 -27 13 -2 6 -12 12 -23 12 -23 0 -38 24 -76 114 -20 50 -44 86 -85 128
-32 32 -62 58 -67 58 -13 0 -34 66 -27 87 4 10 28 41 55 70 l48 52 -8 52 c-5
28 -11 54 -14 57 -3 3 -28 9 -56 12 -37 5 -49 3 -45 -5 2 -7 -1 -23 -8 -37
-10 -19 -10 -26 1 -37 16 -14 12 -85 -6 -119 -13 -25 -60 -32 -107 -16 -63 21
-144 115 -144 165 0 10 -4 20 -9 23 -4 3 -7 44 -5 92 4 89 -1 116 -18 93 -6
-9 -8 1 -4 30 4 27 2 49 -5 57 -13 16 -134 20 -144 4 -3 -5 -18 -10 -32 -10
-34 0 -109 -67 -140 -126 -23 -44 -24 -46 -6 -60 10 -7 26 -14 35 -14 23 0 32
-16 13 -24 -8 -3 -15 -1 -15 5 0 6 -7 8 -16 5 -22 -8 -120 57 -139 93 -10 21
-27 33 -53 40 -46 13 -82 14 -82 2 0 -5 -11 -12 -24 -15 -52 -13 -35 -134 24
-163 29 -14 38 -38 39 -105 1 -62 14 -94 60 -143 21 -23 42 -53 46 -66 4 -13
31 -64 58 -113 50 -87 51 -92 60 -200 16 -191 16 -270 0 -281 -10 -8 -15 -35
-16 -93 -1 -47 -7 -86 -13 -90 -20 -13 -24 -67 -7 -91 10 -15 13 -33 8 -57 -3
-20 -1 -49 6 -68 10 -27 10 -40 0 -65 -26 -61 -62 -49 -203 62 -107 84 -123
114 -106 188 5 24 11 67 13 94 2 28 5 57 7 65 5 24 -21 17 -37 -10 -23 -41
-32 -63 -44 -107 -7 -24 -17 -43 -23 -43 -6 0 -28 18 -48 40 -20 22 -53 46
-73 55 -19 8 -39 19 -42 25 -4 6 -11 8 -16 5 -15 -10 -10 22 6 35 9 7 13 20
10 28 -3 9 0 19 7 23 10 7 11 12 1 28 -7 11 -10 28 -6 37 5 13 2 15 -13 10
-11 -3 -29 2 -43 13 l-25 19 22 88 c21 89 19 110 -10 99 -17 -7 -28 -35 -28
-75 0 -34 -36 -91 -53 -84 -9 3 -12 14 -9 30 3 17 -1 29 -13 38 -10 7 -15 18
-11 24 11 19 -5 62 -23 62 -11 0 -22 14 -30 38 -8 20 -16 42 -18 49 -3 6 8 17
23 25 24 11 28 19 30 61 1 26 -2 50 -7 52 -10 7 10 43 44 79 15 16 27 35 27
43 0 15 -78 53 -95 46 -12 -4 -55 -94 -55 -115 0 -25 -26 -52 -43 -45 -15 5
-14 14 9 74 13 37 37 79 51 92 15 13 27 34 28 46 0 13 9 33 19 44 16 17 17 23
6 36 -19 23 1 60 45 81 42 20 43 43 2 62 -34 17 -34 28 1 46 44 24 102 83 102
105 0 10 14 31 31 46 17 14 29 28 26 32 -9 8 -64 -15 -108 -44 -29 -19 -49
-24 -107 -24 -40 -1 -74 -5 -78 -10 -3 -5 -18 -9 -33 -9 -15 0 -37 -9 -49 -20
-12 -12 -23 -17 -23 -13 -1 4 -4 -5 -8 -21 -3 -16 -12 -31 -20 -34 -11 -4 -13
2 -8 27 4 17 5 31 2 31 -2 0 -17 -21 -32 -47 -15 -27 -33 -54 -40 -61 -7 -7
-14 -24 -14 -38 -1 -13 -2 -30 -3 -36 -1 -7 13 -16 29 -19 l30 -7 -32 -1 c-51
-2 -64 -10 -57 -37 5 -18 2 -24 -9 -24 -12 0 -15 10 -12 48 7 84 17 116 51
164 22 30 31 53 27 67 -6 24 -33 29 -33 7 0 -8 -26 -35 -58 -60 -77 -61 -91
-76 -165 -176 -50 -68 -74 -111 -87 -157 -14 -45 -26 -55 -60 -46 -27 7 -22
37 8 41 39 6 79 96 47 108 -17 7 -11 45 11 79 8 11 14 32 14 47 0 17 5 28 14
28 21 0 41 56 26 74 -15 19 -38 10 -42 -17 -2 -17 -10 -22 -33 -21 -16 0 -36
-6 -43 -13 -7 -7 -19 -13 -26 -13 -6 0 -30 -18 -51 -40 -43 -45 -72 -51 -77
-19 -2 12 -12 27 -23 33 -11 5 -33 19 -48 29 -27 18 -29 18 -48 1 -10 -9 -19
-25 -19 -34 0 -15 -5 -16 -39 -7 -46 12 -72 -1 -64 -34 7 -24 -23 -59 -49 -59
-29 0 -21 17 13 29 26 9 30 15 26 33 -4 13 0 29 10 40 13 14 13 20 3 33 -7 8
-18 15 -25 15 -23 0 -74 -31 -80 -49 -5 -18 -64 -41 -101 -41 -18 1 -18 1 0
15 20 15 20 15 0 30 -31 24 -44 18 -44 -20 0 -28 -4 -35 -19 -35 -11 0 -22 -4
-25 -9 -3 -4 -17 -6 -32 -3 -24 4 -25 3 -15 -17 14 -25 8 -26 -24 -5 -19 12
-31 14 -57 6 -50 -15 -117 -21 -124 -11 -9 15 -27 10 -20 -6 4 -11 -2 -15 -20
-15 -21 0 -25 -4 -21 -20 3 -11 3 -20 1 -20 -12 0 -72 70 -65 75 5 3 7 14 4
25 -9 33 13 49 57 43 35 -5 40 -3 40 14 0 10 5 24 12 31 9 9 8 15 -5 24 -9 7
-15 22 -13 33 4 28 43 32 67 6 33 -36 52 -24 24 13 -23 31 -18 43 21 50 25 5
34 11 30 21 -9 24 13 27 54 8 l38 -20 -5 34 c-5 29 -2 35 16 40 12 3 21 13 21
24 0 25 42 45 65 32 25 -15 67 -4 63 16 -2 9 5 24 16 34 17 15 21 16 42 2 26
-17 64 -20 64 -5 0 6 9 10 21 10 12 0 23 8 26 20 3 13 14 20 29 20 18 0 24 6
24 21 0 29 22 19 40 -19 19 -40 34 -41 28 -2 -5 34 6 47 26 31 16 -14 26 -4
26 26 0 22 4 24 33 21 27 -2 33 1 35 20 4 29 16 28 31 -4 9 -20 15 -23 24 -15
10 7 18 5 31 -10 14 -16 20 -18 32 -9 8 7 14 23 14 36 0 29 26 32 35 4 15 -47
55 -61 55 -19 0 19 37 41 53 32 4 -3 14 0 22 7 11 9 17 5 30 -19 17 -34 32
-40 41 -16 4 8 17 15 30 15 13 0 24 5 24 10 0 6 5 10 10 10 6 0 10 -9 10 -19
0 -39 11 -51 39 -44 14 3 32 13 38 22 11 14 15 14 30 -5 23 -27 49 -36 71 -24
34 18 82 29 87 20 11 -18 66 -4 78 20 15 29 37 38 37 15 0 -10 5 -14 13 -11 6
3 20 9 29 12 10 3 20 15 23 25 9 26 22 24 29 -6 7 -29 24 -33 33 -9 6 15 7 15
19 -1 13 -17 15 -17 38 8 25 27 46 35 46 18 0 -14 31 -84 35 -79 2 2 6 16 9
32 3 16 7 31 10 34 6 6 36 -17 34 -26 -4 -38 18 -42 34 -7 14 30 28 32 35 5 7
-28 33 -7 33 26 0 13 5 24 10 24 6 0 10 -15 10 -34 0 -68 13 -75 72 -34 34 24
38 23 38 -7 0 -32 26 -44 44 -20 8 11 20 16 30 12 13 -5 16 -14 10 -42 -5 -31
-4 -35 14 -35 12 0 24 5 27 10 3 6 17 7 31 4 17 -4 32 0 46 12 21 19 21 19 16
-9 -7 -38 29 -54 72 -32 40 21 53 19 45 -5 -7 -23 -27 -20 205 -24 255 -5 381
-46 562 -186 48 -38 128 -120 128 -132 0 -5 14 -27 30 -50 17 -22 30 -49 30
-59 0 -19 17 -35 27 -25 3 3 0 12 -7 21 -15 19 -5 34 12 17 7 -7 20 -12 29
-12 10 0 24 -6 31 -12 7 -7 42 -14 78 -16 36 -2 67 -7 68 -13 2 -5 21 -9 43
-9 21 0 39 -4 39 -10 0 -5 18 -10 40 -10 22 0 40 4 40 8 0 7 62 42 75 42 2 0
5 -7 7 -16 2 -14 8 -13 34 10 23 18 43 26 72 26 42 0 78 14 106 43 11 11 33
17 62 17 37 0 44 -3 44 -20 0 -17 7 -20 40 -20 l40 0 0 40 c0 39 0 40 -37 40
-29 0 -34 3 -25 12 21 21 13 38 -17 38 -16 0 -34 7 -41 15 -7 8 -17 15 -22 15
-29 0 -107 114 -84 124 7 3 7 5 -1 5 -7 1 -13 8 -13 16 0 8 6 15 13 15 8 0 12
16 12 47 0 42 3 48 25 53 20 5 25 12 25 37 0 20 12 45 33 72 32 40 34 41 97
41 39 0 65 -4 67 -12 5 -13 58 -3 58 12 0 6 -9 19 -20 30 l-21 21 41 39 c23
22 46 40 52 40 6 0 23 15 39 33 26 28 31 30 39 16 16 -28 55 -31 100 -8 22 12
40 24 40 28 0 14 -25 31 -46 31 -32 0 -47 25 -41 65 8 50 -9 91 -44 105 -34
14 -37 30 -9 55 11 10 17 22 14 26 -3 5 23 8 58 8 50 -1 57 -3 33 -9 -16 -4
-24 -8 -17 -9 10 -1 13 -14 10 -48 -3 -43 -1 -48 20 -51 27 -4 29 -22 2 -22
-13 0 -20 -7 -20 -20 0 -11 6 -20 14 -20 8 0 22 -3 32 -7 12 -4 15 -3 10 5 -8
13 -1 16 102 54 35 13 83 41 110 65 l47 41 -25 11 -25 10 30 2 30 2 -35 7 -35
7 35 3 c32 2 33 3 10 9 l-25 8 25 5 c14 3 -995 6 -2241 7 -1246 0 -2341 4
-2432 8 -157 6 -167 5 -167 -12 0 -28 -61 -82 -90 -79 -14 1 -59 -11 -100 -28
-61 -24 -84 -28 -130 -24 -85 9 -111 15 -138 36 -14 11 -33 20 -43 20 -20 0
-59 33 -59 50 0 6 -4 10 -10 10 -5 0 -10 7 -10 15 0 13 -100 15 -840 15 l-840
0 0 -4150z m6610 4100 l-55 -7 45 -3 c31 -2 37 -4 20 -7 -14 -3 -30 -9 -36
-14 -7 -6 -22 -5 -40 2 -18 7 -24 13 -15 16 11 5 11 7 0 14 -9 5 16 8 61 7
l75 -1 -55 -7z m218 3 c-21 -2 -55 -2 -75 0 -21 2 -4 4 37 4 41 0 58 -2 38 -4z
m-6692 -447 c104 -5 182 -21 204 -41 13 -12 23 -12 66 -1 49 13 53 12 104 -15
60 -31 102 -69 132 -117 15 -25 20 -50 20 -115 1 -87 25 -174 58 -212 10 -11
26 -42 35 -70 22 -68 45 -88 90 -79 19 3 35 10 35 15 0 16 18 10 44 -14 23
-21 24 -26 15 -68 -6 -24 -8 -62 -4 -84 12 -70 6 -139 -13 -153 -12 -9 -47
-12 -112 -11 -86 1 -101 4 -153 33 -53 28 -57 34 -53 58 4 20 0 31 -16 43 -12
8 -24 11 -28 6 -8 -13 -120 -23 -120 -11 0 6 -14 16 -30 21 -17 6 -30 13 -30
16 0 12 44 43 62 43 23 0 24 36 3 67 -16 23 -99 73 -121 73 -35 0 -104 47
-125 85 -12 22 -26 43 -31 46 -5 3 -10 54 -12 112 -1 59 -6 110 -9 114 -10 10
-8 33 2 33 5 0 12 -8 14 -17 3 -10 4 -4 3 12 -2 22 -8 29 -20 27 -9 -2 -16 2
-16 7 0 9 -27 22 -57 27 -6 1 -15 -5 -18 -14 -6 -15 -8 -15 -15 3 -11 27 -12
198 -1 191 5 -3 48 -8 97 -10z m1984 -476 c0 -5 -2 -10 -4 -10 -3 0 -8 5 -11
10 -3 6 -1 10 4 10 6 0 11 -4 11 -10z m810 -191 c-12 -42 -57 -90 -64 -68 -14
46 -14 61 2 66 9 4 28 15 41 25 30 23 33 20 21 -23z m-311 -63 c-5 -17 -9 -32
-9 -33 0 -2 -4 -3 -9 -3 -17 0 -20 55 -3 73 21 24 33 4 21 -37z m221 -118 c0
-16 -3 -19 -11 -11 -6 6 -8 16 -5 22 11 17 16 13 16 -11z m-48 -14 c-3 -19 -7
-22 -13 -12 -13 20 -11 38 5 38 9 0 12 -8 8 -26z m-256 -41 c-10 -10 -19 5
-10 18 6 11 8 11 12 0 2 -7 1 -15 -2 -18z m212 -114 c-2 -6 -8 -10 -13 -10 -5
0 -11 4 -13 10 -2 6 4 11 13 11 9 0 15 -5 13 -11z m-318 -95 c0 -8 -4 -12 -10
-9 -5 3 -10 10 -10 16 0 5 5 9 10 9 6 0 10 -7 10 -16z m-925 -110 c13 -5 8
-10 -22 -21 -21 -8 -49 -17 -63 -20 l-25 -5 25 25 c25 26 54 33 85 21z m-465
-154 c0 -5 -18 -10 -40 -10 -22 0 -40 5 -40 10 0 6 18 10 40 10 22 0 40 -4 40
-10z m2898 -42 c-2 -6 -10 -14 -16 -16 -7 -2 -10 2 -6 12 7 18 28 22 22 4z
m1588 -61 c15 5 19 -14 6 -34 -12 -18 -37 8 -36 37 2 39 7 47 11 18 3 -18 9
-25 19 -21z m-73 -32 c-7 -21 -13 -19 -13 6 0 11 4 18 10 14 5 -3 7 -12 3 -20z
m296 -335 c0 -10 -3 -8 -9 5 -12 27 -12 43 0 25 5 -8 9 -22 9 -30z m-2492
-132 c-3 -8 -6 -5 -6 6 -1 11 2 17 5 13 3 -3 4 -12 1 -19z m2510 -35 c-3 -10
-5 -2 -5 17 0 19 2 27 5 18 2 -10 2 -26 0 -35z m-5407 -12 c0 -6 -4 -13 -10
-16 -5 -3 -10 1 -10 9 0 9 5 16 10 16 6 0 10 -4 10 -9z m47 -43 c-3 -8 -6 -5
-6 6 -1 11 2 17 5 13 3 -3 4 -12 1 -19z m3277 -24 c4 -10 1 -14 -6 -12 -15 5
-23 28 -10 28 5 0 13 -7 16 -16z m-3284 -9 c0 -8 -4 -15 -9 -15 -13 0 -22 16
-14 24 11 11 23 6 23 -9z m-20 -45 c0 -5 -7 -10 -16 -10 -8 0 -12 5 -9 10 3 6
10 10 16 10 5 0 9 -4 9 -10z m200 -20 c0 -5 -4 -10 -10 -10 -5 0 -10 5 -10 10
0 6 5 10 10 10 6 0 10 -4 10 -10z m-224 -37 c-10 -10 -19 5 -10 18 6 11 8 11
12 0 2 -7 1 -15 -2 -18z m237 2 c4 -8 2 -17 -3 -20 -6 -4 -10 3 -10 14 0 25 6
27 13 6z m-156 -47 c-3 -8 -6 -5 -6 6 -1 11 2 17 5 13 3 -3 4 -12 1 -19z m179
-69 c0 -21 -3 -39 -8 -39 -4 0 -8 21 -8 47 0 25 3 43 8 39 4 -4 7 -25 8 -47z
m-89 19 c-3 -8 -6 -5 -6 6 -1 11 2 17 5 13 3 -3 4 -12 1 -19z m3128 -17 c3 -5
1 -12 -5 -16 -5 -3 -10 1 -10 9 0 18 6 21 15 7z m365 -92 c0 -11 -5 -29 -10
-39 -6 -10 -6 -21 -2 -24 5 -3 7 -56 4 -118 -5 -132 -5 -148 -1 -167 2 -7 -1
-15 -7 -18 -14 -5 -23 85 -18 172 2 33 4 90 3 127 0 37 2 72 6 78 11 17 25 11
25 -11z m-348 -47 c-8 -6 -6 -12 8 -22 24 -17 26 -30 5 -30 -20 0 -36 41 -22
58 5 7 12 10 16 7 3 -3 0 -9 -7 -13z m-3142 -22 c0 -5 -2 -10 -4 -10 -3 0 -8
5 -11 10 -3 6 -1 10 4 10 6 0 11 -4 11 -10z m100 -11 c0 -5 -4 -9 -10 -9 -5 0
-10 7 -10 16 0 8 5 12 10 9 6 -3 10 -10 10 -16z m87 -25 c8 -21 -13 -42 -28
-27 -13 13 -5 43 11 43 6 0 13 -7 17 -16z m-310 -76 c-3 -8 -6 -5 -6 6 -1 11
2 17 5 13 3 -3 4 -12 1 -19z m3283 -71 c0 -4 -9 -2 -20 5 -11 7 -20 22 -20 33
0 18 2 18 20 -5 11 -14 20 -28 20 -33z m-3160 -13 c0 -8 -4 -12 -10 -9 -5 3
-10 13 -10 21 0 8 5 12 10 9 6 -3 10 -13 10 -21z m-5 -84 c-5 -8 -11 -8 -17
-2 -6 6 -7 16 -3 22 5 8 11 8 17 2 6 -6 7 -16 3 -22z m215 -55 c0 -7 -8 -20
-19 -29 -18 -16 -19 -16 -25 9 -4 15 -4 36 0 47 6 18 7 19 25 2 10 -9 19 -22
19 -29z m2945 35 c3 -5 1 -10 -4 -10 -6 0 -11 5 -11 10 0 6 2 10 4 10 3 0 8
-4 11 -10z m340 -69 c-11 -10 -35 11 -35 31 l0 23 20 -25 c10 -14 17 -26 15
-29z m-3495 14 c0 -8 -4 -15 -10 -15 -5 0 -10 7 -10 15 0 8 5 15 10 15 6 0 10
-7 10 -15z m210 -75 c0 -4 -6 -10 -12 -13 -10 -3 -8 -12 5 -36 17 -28 15 -35
-5 -32 -5 0 -8 -4 -8 -10 0 -5 -5 -7 -11 -3 -6 4 -9 20 -6 39 3 18 1 37 -4 42
-5 5 -7 17 -3 26 5 13 10 14 25 6 10 -5 19 -14 19 -19z m3257 8 c-3 -8 -6 -5
-6 6 -1 11 2 17 5 13 3 -3 4 -12 1 -19z m-3467 -30 c0 -19 -2 -20 -10 -8 -13
19 -13 30 0 30 6 0 10 -10 10 -22z m94 -33 c3 -8 1 -15 -4 -15 -6 0 -10 7 -10
15 0 8 2 15 4 15 2 0 6 -7 10 -15z m3393 -12 c8 -19 12 -118 13 -298 1 -148 5
-304 8 -345 5 -49 2 -101 -7 -150 -14 -80 -18 -309 -11 -770 3 -201 1 -271 -8
-288 -7 -12 -17 -20 -21 -18 -4 3 -11 112 -15 243 -3 131 -9 313 -12 405 -4
102 -2 222 5 305 6 76 14 228 16 338 2 110 9 224 14 254 6 29 9 56 7 60 -8 13
-17 291 -9 291 4 0 13 -12 20 -27z m203 -40 c8 -117 8 -183 0 -188 -12 -7 -11
-13 -15 103 -3 54 0 92 5 92 6 0 10 -3 10 -7z m-3480 -18 c0 -8 -4 -15 -10
-15 -5 0 -10 7 -10 15 0 8 5 15 10 15 6 0 10 -7 10 -15z m-100 -39 c0 -8 -4
-18 -10 -21 -5 -3 -10 3 -10 14 0 12 5 21 10 21 6 0 10 -6 10 -14z m110 -44
c0 -20 -22 -9 -31 16 -7 20 -6 21 11 9 11 -6 20 -18 20 -25z m-216 13 c3 -9 0
-15 -9 -15 -8 0 -15 7 -15 15 0 8 4 15 9 15 5 0 11 -7 15 -15z m3156 -32 c7
-27 14 -56 17 -65 3 -12 -1 -18 -12 -18 -14 0 -14 -3 0 -29 14 -28 20 -85 16
-156 -1 -28 -2 -29 -15 -9 -18 26 -29 91 -16 99 7 4 6 14 -2 28 -6 12 -13 54
-14 92 -1 39 -3 75 -4 80 -4 16 -1 25 9 25 4 0 14 -21 21 -47z m-3032 -22 c3
-8 -1 -12 -9 -9 -7 2 -15 10 -17 17 -3 8 1 12 9 9 7 -2 15 -10 17 -17z m102
-37 c11 -12 10 -18 -3 -31 -15 -15 -17 -14 -27 11 -5 15 -10 29 -10 32 0 10
29 2 40 -12z m-220 -9 c0 -8 -4 -15 -10 -15 -5 0 -10 7 -10 15 0 8 5 15 10 15
6 0 10 -7 10 -15z m120 -50 c0 -8 -4 -15 -10 -15 -5 0 -10 7 -10 15 0 8 5 15
10 15 6 0 10 -7 10 -15z m3560 0 c0 -8 -4 -15 -10 -15 -5 0 -7 7 -4 15 4 8 8
15 10 15 2 0 4 -7 4 -15z m-3450 -46 c0 -10 -7 -19 -15 -19 -9 0 -15 9 -15 25
0 18 4 23 15 19 8 -4 15 -15 15 -25z m-226 -5 c7 -19 -2 -37 -15 -29 -12 8
-12 45 0 45 5 0 12 -7 15 -16z m3679 -107 c-2 -40 -12 -124 -23 -187 -18 -107
-28 -159 -60 -315 -13 -63 -8 -285 11 -494 13 -145 13 -351 0 -364 -14 -14
-18 13 -30 198 -6 88 -16 245 -23 348 -14 216 -8 282 47 554 18 92 37 206 41
253 7 95 11 107 28 90 7 -7 10 -39 9 -83z m-3549 67 c7 -18 0 -34 -15 -34 -5
0 -9 11 -9 25 0 28 15 34 24 9z m91 -29 c0 -10 -6 -20 -12 -22 -8 -3 -13 5
-13 22 0 17 5 25 13 23 6 -3 12 -13 12 -23z m3765 21 c0 -3 -4 -8 -10 -11 -5
-3 -10 -1 -10 4 0 6 5 11 10 11 6 0 10 -2 10 -4z m-169 -114 c-6 -2 -11 -14
-11 -27 0 -13 -4 -26 -9 -29 -5 -4 -15 -29 -22 -56 -12 -48 -29 -67 -29 -33 0
20 17 77 36 118 7 17 16 44 19 60 12 55 19 60 23 15 2 -26 -1 -46 -7 -48z
m-3601 7 c0 -5 -4 -9 -10 -9 -5 0 -10 7 -10 16 0 8 5 12 10 9 6 -3 10 -10 10
-16z m2970 6 c9 -10 9 -19 2 -27 -13 -17 -13 -68 0 -95 9 -17 8 -29 -1 -46
-11 -20 -9 -29 7 -58 11 -19 20 -48 20 -66 0 -17 7 -51 16 -76 22 -66 46 -236
52 -372 3 -66 10 -135 16 -153 8 -28 11 -311 3 -407 -2 -16 -3 -43 -4 -60 -1
-23 -4 -26 -13 -17 -9 9 -11 58 -10 175 3 225 -26 506 -81 772 -24 114 -29
155 -42 320 -3 39 -8 78 -12 89 -3 10 1 22 8 27 19 12 25 11 39 -6z m742 -56
c-2 -24 -9 -53 -15 -64 -7 -11 -13 -31 -13 -45 -3 -48 -24 -149 -46 -217 -11
-37 -22 -86 -24 -108 -1 -22 -7 -69 -13 -105 -26 -159 -35 -277 -33 -433 1
-98 7 -177 13 -189 8 -14 7 -28 -2 -50 -11 -27 -10 -32 7 -45 16 -12 17 -15 4
-23 -28 -18 -48 -11 -59 21 -10 30 -30 168 -36 249 -1 19 -8 80 -15 135 -6 55
-13 179 -14 275 -1 181 2 203 55 390 l19 65 -6 -70 c-3 -38 -11 -80 -17 -95
-11 -26 -20 -386 -10 -452 7 -51 23 -48 23 5 1 23 5 62 11 87 5 25 11 104 14
175 3 105 9 144 30 204 14 41 25 85 25 98 0 13 11 41 25 63 15 23 25 54 25 76
0 42 28 106 44 101 7 -2 10 -22 8 -48z m-3944 -14 c-3 -3 -9 2 -12 12 -6 14
-5 15 5 6 7 -7 10 -15 7 -18z m232 -6 c0 -5 -4 -9 -10 -9 -5 0 -10 7 -10 16 0
8 5 12 10 9 6 -3 10 -10 10 -16z m-102 -57 c4 -25 -13 -30 -22 -6 -9 25 -7 36
7 32 6 -3 13 -14 15 -26z m97 -30 c-8 -9 -35 20 -28 31 4 6 11 3 19 -8 8 -10
12 -21 9 -23z m-225 -12 c0 -5 -5 -10 -11 -10 -5 0 -7 5 -4 10 3 6 8 10 11 10
2 0 4 -4 4 -10z m130 -51 c0 -11 -4 -17 -10 -14 -5 3 -10 13 -10 21 0 8 5 14
10 14 6 0 10 -9 10 -21z m99 -15 c6 -15 10 -29 7 -32 -11 -11 -34 8 -38 32 -7
34 15 34 31 0z m-216 -19 c7 -16 -8 -29 -23 -20 -10 6 -2 35 10 35 4 0 10 -7
13 -15z m127 -51 c0 -8 -4 -12 -10 -9 -5 3 -10 13 -10 21 0 8 5 12 10 9 6 -3
10 -13 10 -21z m88 -13 c3 -8 -1 -12 -9 -9 -7 2 -15 10 -17 17 -3 8 1 12 9 9
7 -2 15 -10 17 -17z m-208 -56 c0 -8 -4 -17 -10 -20 -6 -4 -10 5 -10 20 0 15
4 24 10 20 6 -3 10 -12 10 -20z m210 -41 c0 -21 -4 -33 -10 -29 -5 3 -10 19
-10 36 0 16 5 29 10 29 6 0 10 -16 10 -36z m-95 16 c3 -5 1 -10 -4 -10 -6 0
-11 5 -11 10 0 6 2 10 4 10 3 0 8 -4 11 -10z m2326 -12 c2 -35 11 -65 30 -97
11 -19 18 -42 16 -52 -3 -10 1 -20 9 -23 19 -7 18 -40 -1 -56 -8 -7 -15 -16
-15 -21 0 -5 7 -9 15 -9 10 0 15 -10 15 -27 0 -51 -12 -103 -24 -103 -14 0
-46 -51 -46 -73 0 -8 14 -27 30 -40 34 -29 37 -43 14 -75 -12 -18 -14 -29 -5
-53 8 -24 8 -36 -3 -51 -8 -10 -12 -28 -9 -39 4 -14 0 -19 -16 -19 -18 0 -20
-4 -15 -27 4 -16 15 -45 26 -66 17 -34 18 -43 7 -75 -7 -20 -12 -41 -10 -47 8
-23 1 -80 -11 -91 -20 -19 -123 -45 -202 -51 -39 -3 -68 -3 -64 1 8 10 -11 66
-23 66 -5 0 -9 7 -9 15 0 8 -4 15 -9 15 -5 0 -11 10 -13 22 -2 16 -16 25 -57
39 -51 16 -75 35 -65 50 2 4 -3 10 -11 13 -13 5 -13 8 3 24 10 10 32 24 50 31
18 7 32 17 32 22 0 5 8 9 19 9 10 0 24 7 32 16 11 13 9 14 -17 8 -16 -4 -33
-10 -39 -14 -17 -12 -78 -31 -130 -40 -27 -5 -59 -12 -70 -15 l-20 -7 20 14
c11 8 49 25 85 38 35 12 76 31 90 41 14 10 45 23 69 29 25 7 59 23 76 36 18
13 44 24 58 24 14 0 38 5 54 12 27 11 27 12 6 15 -14 3 -25 14 -29 27 -9 37 2
214 14 229 7 7 15 54 18 103 4 49 12 92 18 96 6 4 12 19 13 34 5 62 91 192 94
142z m-2321 -94 c0 -8 -4 -14 -10 -14 -5 0 -10 9 -10 21 0 11 5 17 10 14 6 -3
10 -13 10 -21z m94 -54 c3 -25 8 -60 12 -77 4 -21 2 -33 -4 -33 -11 0 -17 26
-26 119 -3 34 -2 51 4 45 5 -5 11 -29 14 -54z m1632 -27 c-11 -29 -17 -6 -9
33 7 36 8 37 11 11 2 -16 1 -36 -2 -44z m-1712 -132 c-5 -12 -9 -9 -15 13 -4
16 -5 34 -2 39 9 15 25 -34 17 -52z m1825 7 c-1 -41 -35 -163 -42 -151 -4 7
-1 31 8 55 8 24 15 60 15 81 0 20 5 37 10 37 6 0 10 -10 9 -22z m-1725 -20
c18 -36 20 -58 6 -58 -12 0 -16 9 -24 58 -7 40 -2 41 18 0z m-224 2 c0 -5 -4
-10 -10 -10 -5 0 -10 5 -10 10 0 6 5 10 10 10 6 0 10 -4 10 -10z m2095 -136
c-3 -85 -27 -194 -42 -194 -6 0 1 89 11 145 15 78 29 145 32 145 2 0 1 -43 -1
-96z m116 -18 c-5 -59 -13 -111 -17 -114 -7 -8 2 144 12 197 12 60 14 24 5
-83z m-2081 73 c0 -11 -4 -17 -10 -14 -5 3 -10 13 -10 21 0 8 5 14 10 14 6 0
10 -9 10 -21z m110 -50 c0 -10 -4 -19 -10 -19 -5 0 -10 12 -10 26 0 14 4 23
10 19 6 -3 10 -15 10 -26z m1635 -219 l-14 -55 5 50 c6 60 16 97 21 75 1 -8
-4 -40 -12 -70z m332 38 c-3 -7 -5 -2 -5 12 0 14 2 19 5 13 2 -7 2 -19 0 -25z
m-1896 -48 c5 0 9 -7 9 -16 0 -9 -6 -14 -12 -12 -8 3 -14 23 -14 49 -1 30 0
34 3 12 2 -18 8 -33 14 -33z m-67 14 c3 -8 2 -12 -4 -9 -6 3 -10 10 -10 16 0
14 7 11 14 -7z m1819 -8 c3 -8 -1 -20 -9 -26 -12 -10 -14 -8 -14 14 0 28 14
35 23 12z m-1747 -96 c0 -11 -4 -20 -8 -20 -4 0 -8 9 -8 20 0 11 4 20 8 20 4
0 8 -9 8 -20z m2780 -85 c-4 -48 -16 -57 -16 -13 0 30 6 48 16 48 2 0 2 -16 0
-35z m-2776 0 c0 -8 -2 -15 -4 -15 -2 0 -6 7 -10 15 -3 8 -1 15 4 15 6 0 10
-7 10 -15z m0 -71 c0 -8 -4 -12 -10 -9 -5 3 -10 10 -10 16 0 5 5 9 10 9 6 0
10 -7 10 -16z m-170 -74 c0 -5 -2 -10 -4 -10 -3 0 -8 5 -11 10 -3 6 -1 10 4
10 6 0 11 -4 11 -10z m3639 -23 c6 -12 18 -56 25 -97 15 -82 49 -186 77 -234
9 -17 16 -47 15 -66 -1 -29 -6 -35 -31 -40 -17 -4 -45 -3 -62 2 -29 8 -33 13
-33 42 0 19 -9 53 -19 76 -12 28 -17 55 -14 80 4 31 2 40 -15 49 -11 6 -31 10
-43 8 -24 -2 -30 11 -48 108 -4 23 -10 46 -14 53 -5 7 2 14 20 18 15 3 39 10
53 14 46 16 76 11 89 -13z m-220 -195 c28 -76 38 -112 27 -101 -3 2 -21 49
-41 104 -20 55 -31 95 -26 90 5 -6 24 -47 40 -93z m-3326 -93 c-11 -11 -15 18
-5 41 4 11 7 8 10 -9 2 -13 0 -27 -5 -32z m80 -106 c4 -39 3 -63 -3 -63 -6 0
-10 30 -10 67 0 81 5 79 13 -4z m-74 -55 c-1 -47 -2 -50 -10 -23 -7 26 -3 75
7 75 2 0 4 -24 3 -52z m3411 -3 c0 -5 -5 -3 -10 5 -5 8 -10 20 -10 25 0 6 5 3
10 -5 5 -8 10 -19 10 -25z m34 -74 c-6 -6 -24 19 -24 34 1 6 7 1 15 -9 8 -11
12 -22 9 -25z m-3445 -33 c0 -31 -1 -31 -10 -10 -5 13 -7 28 -3 33 10 16 14 9
13 -23z m80 -43 c0 -23 -2 -26 -9 -15 -5 8 -9 33 -9 55 1 35 2 37 9 15 4 -14
8 -38 9 -55z m-82 -132 c-3 -10 -5 -4 -5 12 0 17 2 24 5 18 2 -7 2 -21 0 -30z
m4258 -13 c18 -19 17 -20 -5 -20 -13 0 -31 -7 -41 -16 -17 -15 -19 -15 -34 0
-9 9 -28 16 -42 16 l-26 0 27 -21 c21 -17 26 -27 22 -45 -4 -13 -2 -24 4 -24
5 0 12 -11 16 -25 8 -32 54 -36 54 -5 0 11 4 20 8 20 12 0 128 -123 135 -142
9 -24 -15 -35 -97 -43 -50 -6 -67 -5 -62 4 10 15 -20 13 -69 -4 -49 -18 -75
-19 -75 -3 0 6 -8 20 -17 31 -17 18 -17 19 0 32 31 23 21 40 -25 39 -42 -1
-54 5 -73 40 -6 10 -15 18 -20 18 -18 -1 -35 20 -35 44 0 34 -13 37 -77 13
-32 -11 -69 -23 -83 -26 l-25 -6 21 19 c26 24 74 50 149 82 47 19 86 26 180
32 66 4 132 7 146 8 15 1 34 -6 44 -18z m85 -118 c14 -20 42 -59 62 -87 38
-49 47 -75 28 -75 -5 0 -14 6 -19 13 -34 40 -60 76 -80 110 -12 20 -27 37 -32
37 -5 0 -9 9 -9 20 0 31 23 23 50 -18z m650 -681 c0 -17 -35 -23 -150 -26
-110 -3 -112 -3 -35 5 44 5 100 13 125 18 61 13 60 13 60 3z m-303 -37 c-3 -3
-12 -4 -19 -1 -8 3 -5 6 6 6 11 1 17 -2 13 -5z m336 -101 c-7 -2 -19 -2 -25 0
-7 3 -2 5 12 5 14 0 19 -2 13 -5z m-133 -7 c0 -3 -4 -8 -10 -11 -5 -3 -10 -1
-10 4 0 6 5 11 10 11 6 0 10 -2 10 -4z m-4710 -686 c0 -5 -4 -10 -9 -10 -6 0
-13 5 -16 10 -3 6 1 10 9 10 9 0 16 -4 16 -10z m20 -60 c0 -5 -9 -10 -21 -10
-11 0 -17 5 -14 10 3 6 13 10 21 10 8 0 14 -4 14 -10z m34 -33 c-5 -13 -54
-20 -54 -7 0 9 43 29 52 23 4 -2 5 -9 2 -16z m-974 -20 c0 -2 -9 -12 -20 -22
-19 -18 -20 -17 -20 3 0 15 6 22 20 22 11 0 20 -2 20 -3z m183 -54 c17 -8 37
-22 45 -30 10 -9 24 -12 46 -7 l31 6 -26 -24 c-31 -29 -83 -34 -117 -12 -22
15 -26 14 -46 -5 -25 -24 -32 -20 -52 27 -21 52 -4 76 48 68 22 -4 54 -14 71
-23z m-156 -10 c2 -6 -5 -14 -17 -18 -26 -8 -33 -3 -24 19 7 19 35 18 41 -1z
m2018 -123 c3 -5 1 -10 -4 -10 -6 0 -11 5 -11 10 0 6 2 10 4 10 3 0 8 -4 11
-10z m-1340 -12 c112 14 273 4 301 -19 9 -7 41 -14 182 -36 31 -5 72 -46 72
-72 0 -13 -17 -15 -25 -2 -3 6 -13 9 -23 9 -20 -1 -163 20 -212 32 -43 10
-191 4 -199 -8 -7 -10 -79 -9 -102 2 -10 4 -25 6 -35 4 -15 -2 -18 2 -16 20 2
21 -2 23 -30 21 -18 -2 -45 3 -60 11 -34 16 -38 43 -5 35 12 -3 36 -1 52 4 17
5 44 7 60 4 17 -3 35 -5 40 -5z m1365 -118 c0 -5 -4 -10 -10 -10 -5 0 -10 5
-10 10 0 6 5 10 10 10 6 0 10 -4 10 -10z"/>
<path d="M2940 3510 c0 -5 9 -10 21 -10 11 0 17 5 14 10 -3 6 -13 10 -21 10
-8 0 -14 -4 -14 -10z"/>
<path d="M4813 2059 c-25 -9 -28 -21 -13 -50 13 -23 55 -25 64 -3 16 41 -10
69 -51 53z"/>
<path d="M9040 8292 c0 -4 5 -13 10 -18 6 -6 11 -32 12 -58 2 -36 -2 -50 -15
-57 -9 -6 -24 -35 -33 -65 -18 -63 -40 -90 -81 -100 -16 -4 -39 -18 -53 -32
-14 -14 -39 -31 -57 -38 -19 -8 -30 -19 -28 -27 4 -10 -41 -39 -65 -42 -27 -4
-60 -17 -60 -25 0 -6 -7 -10 -15 -10 -8 0 -15 -7 -15 -15 0 -10 -14 -17 -40
-21 -22 -4 -40 -10 -40 -13 0 -4 -16 -5 -35 -3 -25 3 -36 0 -41 -12 -7 -17
-54 -23 -54 -6 0 12 -67 46 -75 39 -2 -3 0 -33 6 -67 7 -41 16 -62 25 -62 8 0
14 -9 14 -20 0 -11 6 -23 14 -26 24 -9 28 -34 6 -34 -13 0 -20 7 -20 20 0 17
-7 20 -50 20 -39 0 -53 -4 -62 -20 -7 -11 -21 -20 -30 -20 -14 0 -18 -8 -18
-40 0 -27 4 -40 13 -40 8 0 22 -9 32 -20 21 -23 110 -29 117 -8 3 8 16 3 39
-16 28 -24 35 -26 37 -12 5 23 84 22 108 -1 17 -17 17 -18 -4 -21 -41 -6 -22
-22 26 -22 26 0 53 -5 60 -12 9 -9 15 -9 24 0 16 16 28 15 28 -2 0 -16 32 -26
60 -19 19 5 20 6 3 19 -16 12 -16 15 -3 25 12 8 6 9 -22 5 -33 -4 -38 -2 -38
15 0 15 7 19 34 19 19 0 36 -6 38 -12 6 -17 116 -39 125 -25 3 5 2 7 -3 4 -6
-3 -16 -2 -24 4 -11 6 -2 9 28 9 29 0 44 -5 48 -15 4 -8 15 -15 26 -15 10 0
16 5 13 10 -11 18 27 11 42 -7 8 -10 12 -13 9 -7 -4 7 13 13 44 17 44 5 53 3
75 -19 14 -14 25 -29 25 -34 0 -6 16 -10 35 -10 24 0 35 5 35 15 0 13 24 15
159 15 156 0 159 0 166 -22 7 -19 9 -16 15 22 4 25 8 -661 8 -1523 2 -1565 2
-1568 -18 -1557 -11 6 -20 15 -20 21 0 13 -109 1 -127 -13 -9 -7 -13 -7 -13 0
0 6 -6 9 -14 6 -8 -3 -18 1 -22 8 -6 9 -11 -2 -14 -32 -6 -49 -33 -68 -45 -30
-3 11 -11 18 -16 14 -6 -3 -7 -13 -4 -23 4 -9 8 -33 10 -53 3 -44 -8 -51 -75
-42 -30 4 -50 2 -54 -5 -10 -16 -35 -14 -52 4 -19 19 -48 19 -66 1 -8 -7 -39
-17 -69 -21 l-54 -7 19 21 c11 11 25 21 32 21 7 0 15 4 18 8 9 15 -147 0 -171
-16 -13 -8 -21 -18 -18 -22 6 -9 -46 -19 -139 -27 -56 -4 -68 -3 -64 9 5 11
-11 13 -81 13 -47 0 -89 -4 -92 -8 -3 -5 -35 -11 -70 -14 -35 -3 -66 -10 -69
-14 -14 -21 -149 -8 -166 15 -6 9 -16 16 -23 16 -6 0 -11 3 -11 8 0 4 -24 13
-54 20 -77 18 -201 -7 -233 -46 -45 -55 -69 -75 -119 -97 -29 -13 -56 -30 -60
-38 -29 -49 -185 -117 -269 -117 l-55 0 0 -173 0 -173 38 -17 c21 -9 46 -17
54 -17 18 0 42 -26 31 -33 -5 -3 -30 0 -56 6 -56 12 -68 5 -70 -44 l-2 -34 90
-5 90 -5 -27 -19 c-32 -21 -36 -36 -10 -36 9 0 26 -7 36 -15 11 -8 30 -15 43
-15 13 0 23 -4 23 -10 0 -5 7 -10 15 -10 18 0 19 29 5 81 -14 48 -32 64 -59
49 -17 -8 -21 -8 -21 4 0 20 27 46 48 46 9 0 31 -14 49 -32 31 -30 40 -28 27
6 -3 9 -15 16 -25 16 -10 0 -19 7 -19 15 0 21 22 19 43 -5 11 -14 25 -18 44
-15 128 22 372 47 382 39 8 -7 -21 -33 -37 -33 -31 -1 -176 -31 -224 -46 -26
-8 -55 -15 -66 -15 -11 0 -25 -7 -32 -15 -7 -9 -20 -13 -27 -10 -24 8 -9 -19
15 -30 12 -5 22 -13 22 -17 0 -7 -36 -22 -55 -23 -17 0 -17 -45 -1 -71 9 -13
12 -24 6 -24 -5 0 -10 -4 -10 -9 0 -11 57 -25 97 -22 30 1 31 0 38 -51 23
-188 40 -276 61 -330 13 -34 24 -65 24 -69 0 -3 21 -43 46 -87 25 -45 44 -89
42 -99 -3 -18 -28 -19 -120 -10 -9 1 -17 -2 -18 -8 0 -5 17 -11 37 -13 21 -1
47 -7 58 -11 11 -5 28 -12 38 -15 9 -3 17 -14 17 -25 0 -11 3 -26 6 -35 4 -10
-8 -23 -36 -41 -39 -24 -41 -28 -38 -67 2 -34 8 -44 33 -58 27 -15 30 -22 33
-73 3 -56 3 -56 -30 -65 l-32 -8 55 -17 c29 -9 64 -14 77 -11 29 8 213 -15
231 -29 19 -16 53 -36 73 -43 15 -5 17 -17 14 -83 -2 -42 0 -84 5 -93 5 -10
10 -35 11 -55 0 -21 4 -45 9 -54 11 -21 18 -339 8 -364 -4 -11 -8 -14 -8 -7
-1 6 -6 12 -11 12 -6 0 -10 -6 -9 -12 3 -26 -1 -38 -13 -38 -18 -1 -91 -88
-83 -100 3 -5 1 -10 -4 -10 -6 0 -11 7 -11 15 0 21 -12 19 -44 -6 -21 -16 -24
-24 -16 -34 6 -8 17 -12 25 -9 16 7 55 -34 55 -58 0 -10 -7 -19 -15 -19 -8 -1
-21 -2 -27 -3 -7 -1 -21 2 -30 6 -11 5 -26 4 -37 -1 -15 -9 -20 -7 -24 9 -5
21 -31 27 -42 10 -3 -5 3 -18 15 -30 25 -25 26 -45 3 -35 -38 15 -53 17 -53 5
0 -7 -8 -9 -22 -4 -20 6 -21 5 -10 -9 18 -21 9 -34 -28 -42 -20 -4 -36 -17
-46 -37 -12 -24 -20 -29 -37 -23 -47 14 -52 12 -49 -22 2 -25 -1 -33 -12 -33
-9 0 -16 5 -16 10 0 6 -16 10 -35 10 -19 0 -35 -4 -35 -9 0 -14 -32 -23 -44
-11 -16 16 -26 12 -26 -12 -1 -21 -2 -22 -14 -5 -20 26 -56 22 -56 -5 l0 -23
-20 25 c-19 23 -21 24 -33 8 -11 -14 -16 -15 -26 -5 -10 10 -11 4 -6 -25 7
-36 -5 -52 -20 -28 -12 20 -35 10 -35 -15 0 -16 -6 -25 -16 -25 -14 0 -16 -8
-12 -44 4 -33 2 -46 -9 -50 -8 -3 -13 0 -11 7 3 12 -3 17 -19 17 -13 0 -13
-72 0 -89 7 -9 18 -16 26 -16 8 0 16 -6 19 -14 3 -10 -1 -12 -17 -8 -16 4 -21
1 -21 -13 0 -10 -9 -20 -19 -23 -14 -3 -18 -1 -14 9 3 8 -1 14 -11 14 -22 0
-20 -11 9 -54 30 -45 31 -50 5 -43 -24 6 -28 -20 -5 -29 20 -8 19 -22 -2 -20
-10 0 -19 -6 -21 -15 -2 -12 7 -18 33 -23 56 -11 32 -29 -27 -22 -34 5 -48 4
-43 -4 4 -6 -7 -10 -29 -10 -20 0 -36 5 -36 10 0 6 -7 10 -15 10 -8 0 -15 -4
-15 -10 0 -19 -46 -39 -99 -45 -55 -5 -85 -20 -75 -36 3 -5 -8 -9 -24 -9 -24
0 -31 -5 -35 -28 -3 -15 -4 -28 -2 -30 2 -2 23 3 47 11 33 11 56 13 98 6 65
-11 137 -3 158 17 8 8 17 12 21 9 3 -4 -3 -13 -13 -20 -18 -14 -18 -15 0 -41
10 -15 24 -34 29 -43 6 -9 14 -19 19 -23 13 -9 -50 -46 -111 -64 -29 -8 -55
-20 -58 -25 -4 -5 458 -9 1209 -9 l1216 0 0 4150 0 4150 -295 0 c-162 0 -295
-4 -295 -8z m545 -4071 c-3 -6 -14 -10 -23 -10 -15 1 -15 2 1 6 9 2 17 9 17
15 0 6 3 9 6 5 3 -3 3 -10 -1 -16z m-625 -80 c0 -5 -18 -8 -40 -7 -22 0 -40 4
-40 8 0 5 18 8 40 8 22 0 40 -4 40 -9z m493 -185 c56 -10 44 -25 -15 -19 -61
6 -63 7 -54 29 4 11 10 13 19 6 6 -5 29 -12 50 -16z m-418 -180 c9 -13 18 -45
20 -72 12 -124 15 -152 21 -200 5 -39 2 -58 -12 -85 l-19 -34 -11 170 c-11
172 -18 215 -35 215 -5 0 -9 7 -9 15 0 23 28 18 45 -9z m-814 -99 c22 -16 35
-44 64 -129 20 -57 25 -94 25 -168 0 -52 3 -118 6 -146 l7 -52 66 -8 c60 -8
66 -12 75 -37 8 -22 7 -30 -4 -37 -8 -5 -11 -12 -7 -17 5 -4 12 -1 16 6 7 11
10 11 17 -1 5 -8 19 -20 31 -27 16 -8 23 -22 25 -52 2 -33 10 -47 33 -65 l31
-23 -4 189 c-3 130 -1 190 6 190 6 0 15 -19 19 -42 l9 -43 54 0 c38 -1 59 4
68 15 11 13 13 13 25 -5 6 -11 15 -38 18 -60 4 -22 10 -58 14 -80 6 -38 6 -39
-10 -20 -14 17 -17 18 -25 5 -13 -20 -12 -31 5 -79 17 -48 90 -121 123 -121
12 0 25 -1 30 -1 4 -1 12 8 18 21 7 12 14 17 18 12 12 -20 28 -161 35 -302 l6
-145 30 0 30 0 0 150 c0 168 -12 539 -21 658 -4 43 -3 77 2 77 5 0 16 -35 24
-77 l15 -78 75 0 c73 0 75 -1 96 -32 22 -33 49 -176 42 -224 -2 -19 -9 -23
-43 -23 -33 -1 -41 -5 -43 -23 -4 -30 45 -45 64 -19 15 22 22 12 24 -39 5
-107 -1 -184 -15 -198 -13 -13 -11 -16 15 -27 16 -7 33 -9 38 -6 5 3 10 33 11
67 1 34 4 66 6 70 3 4 8 124 11 266 4 142 7 269 8 283 0 14 -3 53 -7 88 -4 35
-3 61 2 58 14 -9 32 -96 25 -118 -3 -11 -3 -40 1 -64 6 -40 9 -44 35 -44 67 0
82 -27 18 -32 -38 -3 -43 -6 -43 -28 0 -22 4 -25 32 -22 41 4 73 -6 73 -22 0
-8 14 -19 30 -26 40 -17 58 -2 63 53 2 23 4 -43 4 -147 1 -188 -2 -206 -36
-249 -13 -16 -15 -16 -33 -1 -16 15 -18 16 -18 1 0 -9 5 -19 10 -22 6 -4 7
-23 4 -46 -7 -42 7 -53 25 -21 8 13 10 8 11 -25 0 -30 -7 -50 -22 -68 -23 -26
-80 -50 -102 -42 -8 3 -18 1 -24 -5 -6 -6 -34 -11 -63 -12 -61 -1 -80 -20 -62
-58 6 -13 14 -34 17 -48 8 -31 71 -80 103 -80 19 0 24 -5 21 -20 -2 -14 5 -25
22 -33 14 -7 27 -23 28 -36 2 -14 10 -31 18 -38 8 -8 14 -26 14 -40 0 -23 -3
-25 -28 -20 -31 6 -112 -2 -112 -12 0 -14 64 -41 96 -41 30 0 35 -4 41 -30 5
-26 23 -43 23 -22 0 4 5 45 10 91 11 81 33 136 51 125 5 -3 9 -142 9 -310 0
-217 -3 -303 -11 -298 -6 3 -9 14 -6 24 2 10 1 24 -4 31 -9 15 -15 5 -21 -36
-2 -12 -12 -21 -26 -23 -27 -4 -73 23 -69 41 3 15 -35 16 -40 0 -2 -6 4 -13
14 -16 10 -3 5 -4 -10 -4 -16 1 -33 7 -39 14 -6 7 -19 13 -29 13 -19 0 -23 9
-19 43 1 13 -4 18 -17 15 -15 -3 -18 -12 -15 -59 4 -54 3 -57 -22 -61 -15 -3
-29 -1 -32 3 -13 21 -24 6 -24 -33 0 -59 -10 -71 -44 -58 -32 12 -46 6 -46
-19 0 -10 -3 -20 -6 -24 -10 -10 -34 4 -35 22 0 13 -2 13 -6 1 -4 -8 -17 -23
-30 -33 -13 -10 -23 -24 -22 -30 4 -33 -1 -40 -17 -27 -17 15 -124 24 -124 11
0 -11 -37 -21 -45 -12 -4 3 -25 7 -48 7 -47 2 -104 8 -127 15 -10 3 -15 -3
-14 -18 1 -28 -8 -29 -27 -5 -12 14 -15 52 -13 206 2 103 5 191 8 194 11 10
18 -7 25 -60 l6 -53 50 3 c28 2 60 10 72 18 12 8 28 14 34 14 15 0 70 58 109
115 15 22 38 50 51 62 55 49 67 68 62 96 -3 15 -9 30 -14 33 -5 3 -9 14 -9 25
0 11 -4 17 -10 14 -5 -3 -15 5 -22 20 -23 50 -98 46 -118 -7 -34 -91 -77 -154
-129 -189 l-33 -23 -19 23 c-16 20 -19 41 -19 135 0 122 -20 276 -45 346 -9
24 -34 66 -55 92 -22 25 -40 51 -40 57 0 5 -22 24 -50 42 -27 18 -50 36 -50
40 0 14 38 29 73 29 31 0 37 4 50 38 15 37 21 92 18 165 -1 45 -30 77 -69 77
-43 0 -58 -26 -70 -120 -6 -47 -22 -112 -36 -145 -26 -63 -26 -75 5 -75 24 0
25 -16 0 -29 -41 -22 -54 -84 -56 -279 -1 -100 -5 -185 -8 -188 -2 -3 -21 2
-40 10 -28 11 -43 28 -66 74 l-30 60 35 70 c29 59 35 82 39 153 2 46 0 125 -5
174 -5 50 -12 205 -14 345 -3 140 -10 296 -15 345 -27 261 -43 318 -96 323
-40 5 -49 15 -36 41 13 24 65 29 92 8z m1103 -139 c15 -24 4 -30 -33 -17 -26
9 -29 14 -20 26 15 17 38 13 53 -9z m-397 -54 c-9 -9 -28 6 -21 18 4 6 10 6
17 -1 6 -6 8 -13 4 -17z m250 14 c-2 -7 -14 -12 -26 -11 -15 2 -24 -5 -31 -22
-5 -14 -14 -25 -20 -25 -13 0 -13 12 0 44 8 21 16 26 46 26 24 0 34 -4 31 -12z
m-337 -49 c0 -11 -4 -17 -10 -14 -5 3 -10 13 -10 21 0 8 5 14 10 14 6 0 10 -9
10 -21z m-803 -44 c29 0 10 -20 -22 -23 -33 -2 -35 -1 -23 17 7 11 17 17 23
13 5 -4 16 -7 22 -7z m569 -39 c6 -26 -2 -50 -15 -42 -11 7 -12 66 -1 66 5 0
12 -11 16 -24z m266 -58 c2 -27 0 -48 -4 -48 -5 0 -8 11 -8 24 0 13 -3 39 -6
57 -5 23 -3 31 4 24 5 -5 12 -31 14 -57z m741 25 c-4 -11 -8 -13 -11 -5 -2 7
-22 13 -45 14 l-42 1 45 6 c54 8 61 6 53 -16z m-1085 -128 c5 -114 1 -131 -29
-114 -16 8 -18 13 -9 19 8 5 11 35 10 101 -3 115 -3 116 12 101 7 -7 14 -52
16 -107z m-604 44 c14 -11 26 -29 26 -40 0 -11 7 -19 16 -19 8 0 13 -4 10 -9
-9 -14 20 -21 53 -11 22 6 31 5 35 -6 9 -23 -3 -40 -39 -54 -19 -7 -37 -20
-40 -28 -8 -22 2 -27 19 -10 9 9 26 13 45 10 30 -4 31 -6 32 -61 1 -31 1 -86
-1 -123 -2 -77 13 -132 42 -152 16 -11 19 -21 14 -42 l-7 -27 -18 29 c-26 42
-58 67 -76 61 -29 -12 -48 38 -95 253 -12 52 -23 104 -25 116 -11 52 -80 97
-100 64 -9 -15 -25 -12 -25 5 0 7 -7 18 -16 23 -14 8 -8 12 27 25 61 21 92 20
123 -4z m529 -4 c-3 -8 -9 -15 -14 -15 -10 0 -12 24 -3 33 11 11 24 -3 17 -18z
m473 -222 c-8 -19 -34 -16 -40 5 -4 10 -8 56 -11 103 -4 72 -3 81 9 67 17 -23
26 -23 26 0 0 10 3 22 8 26 8 9 16 -180 8 -201z m402 171 c2 -28 2 -28 -13
-10 -18 24 -20 49 -2 44 6 -3 13 -18 15 -34z m-1298 -4 c0 -5 -4 -10 -10 -10
-5 0 -10 5 -10 10 0 6 5 10 10 10 6 0 10 -4 10 -10z m191 -450 c22 -12 27 -70
7 -70 -16 1 -78 56 -78 70 0 13 46 13 71 0z m-165 -547 c-10 -10 -19 5 -10 18
6 11 8 11 12 0 2 -7 1 -15 -2 -18z m1340 -558 c4 -8 3 -23 -1 -32 -6 -17 -7
-17 -21 1 -8 11 -14 26 -14 33 0 18 29 16 36 -2z m-826 -391 c0 -8 -5 -12 -10
-9 -6 4 -8 11 -5 16 9 14 15 11 15 -7z m-480 -232 c0 -13 -12 -22 -22 -16 -10
6 -1 24 13 24 5 0 9 -4 9 -8z m-632 -808 c14 -15 14 -16 -3 -13 -10 2 -20 10
-23 17 -5 17 6 15 26 -4z"/>
<path d="M9412 3088 c5 -13 37 -20 52 -11 5 4 1 10 -10 14 -29 11 -46 10 -42
-3z"/>
<path d="M9390 2826 c0 -26 5 -35 22 -39 13 -4 26 -1 30 6 11 17 10 27 -2 27
-5 0 -10 9 -10 20 0 13 -7 20 -20 20 -16 0 -20 -7 -20 -34z"/>
<path d="M9490 2715 c0 -8 4 -15 9 -15 5 0 11 7 15 15 3 9 0 15 -9 15 -8 0
-15 -7 -15 -15z"/>
<path d="M9405 2680 c-3 -5 4 -14 15 -20 16 -8 20 -8 20 4 0 16 -27 29 -35 16z"/>
<path d="M9460 2210 c0 -5 5 -10 10 -10 6 0 10 5 10 10 0 6 -4 10 -10 10 -5 0
-10 -4 -10 -10z"/>
<path d="M9040 2094 c0 -8 5 -12 10 -9 6 3 10 10 10 16 0 5 -4 9 -10 9 -5 0
-10 -7 -10 -16z"/>
<path d="M8746 2013 c-12 -12 -5 -23 14 -23 11 0 20 4 20 9 0 11 -26 22 -34
14z"/>
<path d="M8706 1941 c-3 -4 4 -17 15 -27 20 -18 21 -18 35 0 7 10 11 23 8 27
-7 12 -51 12 -58 0z"/>
<path d="M7663 7535 c-28 -27 -29 -35 -3 -35 11 0 20 5 20 10 0 6 18 10 40 10
33 0 40 3 40 20 0 29 -67 26 -97 -5z"/>
<path d="M6783 7510 c-33 -13 -28 -38 11 -54 36 -15 56 -36 34 -36 -10 0 -13
-10 -10 -35 3 -29 -1 -40 -22 -60 -15 -14 -36 -25 -46 -25 -23 0 -32 -13 -24
-34 6 -15 10 -15 40 3 l34 20 0 -24 c0 -24 2 -25 80 -25 47 0 80 -4 80 -10 0
-6 33 -10 80 -10 44 0 80 4 80 9 0 6 19 11 43 13 39 3 42 5 39 31 -3 26 -1 27
37 27 23 0 41 5 41 10 0 6 33 10 80 10 52 0 80 4 80 11 0 7 16 10 43 8 l42 -4
-4 43 c-2 34 0 42 14 42 9 0 13 5 10 10 -4 6 -14 9 -23 6 -10 -2 -78 -8 -154
-11 -130 -7 -137 -6 -157 14 -15 15 -34 21 -66 21 -26 0 -45 -5 -45 -11 0 -6
-6 -9 -12 -6 -7 2 -12 10 -10 17 1 6 -7 14 -18 17 -11 3 -20 9 -20 12 0 8 -2
9 -76 14 -28 3 -56 7 -62 11 -6 3 -13 2 -17 -4 -4 -7 -12 -7 -25 0 -22 12 -47
12 -77 0z"/>
<path d="M8830 7400 c-8 -5 -11 -12 -7 -16 4 -4 13 -2 19 4 15 15 7 24 -12 12z"/>
<path d="M3070 7391 c0 -19 48 -37 62 -23 15 15 9 20 -30 28 -21 4 -32 3 -32
-5z"/>
<path d="M3242 7368 c5 -15 28 -18 29 -3 0 6 -7 12 -17 13 -10 3 -15 -1 -12
-10z"/>
<path d="M2840 7355 c7 -8 16 -12 21 -9 13 8 1 24 -18 24 -13 0 -13 -3 -3 -15z"/>
<path d="M2722 7334 c2 -11 11 -20 22 -22 13 -3 17 1 14 14 -2 11 -11 20 -22
22 -13 3 -17 -1 -14 -14z"/>
<path d="M2906 7332 c-6 -18 -2 -30 15 -48 34 -37 56 -31 50 14 -1 9 6 11 22
7 18 -5 26 -2 31 11 9 23 -10 42 -26 26 -16 -16 -75 -15 -81 1 -2 6 -7 2 -11
-11z"/>
<path d="M3042 7339 c2 -6 8 -10 13 -10 5 0 11 4 13 10 2 6 -4 11 -13 11 -9 0
-15 -5 -13 -11z"/>
<path d="M2630 7300 c0 -5 5 -10 11 -10 5 0 7 5 4 10 -3 6 -8 10 -11 10 -2 0
-4 -4 -4 -10z"/>
<path d="M8740 7303 c-20 -8 -57 -51 -77 -87 -10 -20 -14 -48 -11 -91 3 -51
14 -82 66 -186 34 -68 62 -134 62 -146 0 -32 15 -36 30 -8 7 14 18 25 25 25
15 0 195 139 202 157 3 7 -2 22 -11 32 -9 10 -16 25 -16 34 0 11 -5 14 -16 10
-14 -5 -15 -1 -9 26 8 38 -12 94 -31 87 -8 -3 -14 5 -16 22 -2 19 -8 27 -20
26 -13 -1 -18 6 -18 25 0 19 -10 34 -30 49 -30 23 -103 37 -130 25z"/>
<path d="M2580 7280 c0 -5 5 -10 11 -10 5 0 7 5 4 10 -3 6 -8 10 -11 10 -2 0
-4 -4 -4 -10z"/>
<path d="M2405 7229 c-4 -6 -5 -13 -2 -16 7 -7 27 6 27 18 0 12 -17 12 -25 -2z"/>
<path d="M3180 7139 c0 -5 5 -7 10 -4 6 3 10 8 10 11 0 2 -4 4 -10 4 -5 0 -10
-5 -10 -11z"/>
<path d="M7452 7015 c-41 -18 -42 -52 -2 -46 108 16 271 -5 409 -53 173 -61
194 -80 189 -178 -4 -79 14 -93 24 -18 10 73 1 126 -25 151 -68 65 -310 145
-463 154 -77 4 -106 2 -132 -10z"/>
<path d="M7371 6952 c-13 -24 -18 -90 -8 -94 10 -3 37 67 37 95 0 22 -17 22
-29 -1z"/>
<path d="M7203 6894 c-7 -3 -15 -21 -19 -40 -5 -25 -14 -38 -32 -45 -86 -33
-132 -102 -139 -209 -5 -70 -4 -79 17 -98 l22 -20 -75 -76 c-111 -113 -167
-227 -187 -381 -14 -111 -12 -201 5 -259 8 -26 12 -52 10 -57 -9 -13 29 -119
63 -175 29 -49 29 -53 14 -77 -27 -41 -120 -127 -136 -127 -17 0 -22 -25 -8
-34 5 -3 17 1 28 9 10 8 37 29 59 46 22 17 53 38 68 46 32 16 39 13 91 -45 82
-92 219 -171 354 -203 107 -26 233 -21 331 12 l64 22 18 -22 c10 -12 21 -42
25 -67 7 -46 26 -66 45 -47 7 7 7 17 1 29 -5 11 -14 39 -20 64 -6 25 -14 52
-17 61 -5 13 5 21 45 34 121 40 349 325 338 421 -3 29 -3 29 -23 -13 -24 -51
-37 -55 -28 -10 l6 32 -39 -35 c-21 -19 -41 -37 -44 -40 -19 -19 -80 -60 -80
-54 0 4 18 30 39 58 64 82 99 169 116 284 24 157 3 314 -55 414 -20 35 15 7
48 -38 59 -80 113 -84 159 -11 26 41 37 116 20 133 -4 4 -18 2 -31 -5 -13 -8
-28 -12 -34 -10 -20 8 -123 129 -127 150 -2 12 -14 39 -25 61 -11 22 -18 43
-15 47 2 5 -6 20 -20 35 -56 61 -173 6 -191 -90 -7 -37 -18 -41 -48 -19 -10 8
-55 26 -99 41 -74 25 -84 26 -148 15 -82 -13 -165 -14 -134 -1 11 5 37 9 57 9
35 1 38 4 49 42 16 52 11 55 -108 64 -99 8 -113 16 -113 64 0 12 -4 21 -9 21
-9 0 -19 23 -30 70 -6 24 -32 35 -58 24z m429 -435 c81 -28 115 -47 149 -84
21 -22 24 -32 14 -40 -43 -36 -107 -117 -99 -125 10 -10 117 85 126 111 9 26
85 -36 115 -94 76 -146 99 -258 70 -347 -8 -25 -15 -37 -16 -27 -1 13 -10 17
-41 17 -23 0 -54 7 -70 15 -17 9 -40 13 -53 10 -17 -5 -32 2 -56 24 -18 17
-37 31 -42 31 -5 0 -9 10 -9 22 0 26 -27 58 -50 58 -10 0 -29 -9 -43 -20 -36
-29 -109 -37 -138 -16 -13 9 -33 16 -45 16 -13 0 -37 17 -60 43 -21 23 -51 50
-68 60 -16 10 -37 28 -47 40 -14 17 -20 19 -30 10 -9 -9 2 -25 50 -72 34 -33
70 -63 81 -66 24 -8 26 -41 5 -69 -21 -28 -19 -49 9 -75 32 -30 62 -23 113 25
29 27 43 34 63 30 14 -3 45 -9 70 -14 62 -12 109 -34 163 -75 26 -20 57 -39
69 -43 13 -3 35 -15 50 -25 14 -11 34 -19 43 -19 38 0 -12 -93 -108 -200 -44
-50 -96 -90 -137 -106 -41 -16 -67 -27 -82 -35 -30 -15 -148 -28 -176 -19 -15
5 -52 11 -82 15 -30 3 -79 13 -108 21 -30 9 -56 14 -59 11 -9 -9 -92 31 -135
65 -100 78 -165 168 -207 289 -16 42 -21 50 -27 35 -4 -11 -1 -32 8 -50 9 -17
31 -61 49 -98 18 -38 41 -75 51 -85 10 -9 18 -21 18 -27 0 -22 -62 61 -96 131
-49 97 -62 207 -39 331 9 48 22 96 29 107 7 11 18 37 25 57 7 21 17 41 23 45
7 4 9 0 5 -10 -3 -10 -5 -17 -3 -17 2 0 41 36 86 80 66 64 102 90 175 126 51
25 115 49 142 53 86 14 257 3 325 -20z m-682 -153 c0 -3 -4 -8 -10 -11 -5 -3
-10 -1 -10 4 0 6 5 11 10 11 6 0 10 -2 10 -4z m-20 -36 c0 -5 -4 -10 -10 -10
-5 0 -10 5 -10 10 0 6 5 10 10 10 6 0 10 -4 10 -10z m1040 -456 c0 -17 -22
-14 -28 4 -2 7 3 12 12 12 9 0 16 -7 16 -16z m-975 -274 c10 -11 16 -20 13
-20 -3 0 -13 9 -23 20 -10 11 -16 20 -13 20 3 0 13 -9 23 -20z m140 -101 c20
-12 34 -24 31 -26 -2 -3 -24 7 -48 21 -24 14 -38 26 -31 26 6 0 28 -10 48 -21z
m645 -23 c0 -2 -7 -7 -16 -10 -8 -3 -12 -2 -9 4 6 10 25 14 25 6z m-510 -36
c13 -9 13 -10 0 -10 -8 0 -22 5 -30 10 -13 9 -13 10 0 10 8 0 22 -5 30 -10z
m80 -20 c12 -8 12 -10 -5 -9 -11 0 -29 4 -40 9 -18 8 -18 9 5 9 14 0 32 -4 40
-9z m399 -57 c0 -25 -1 -26 -9 -8 -12 27 -12 35 0 35 6 0 10 -12 9 -27z"/>
<path d="M7495 6408 c4 -18 8 -51 9 -73 3 -35 6 -40 28 -41 14 -1 30 -4 35 -7
14 -9 26 8 46 63 23 62 22 84 -3 77 -11 -3 -23 -1 -26 4 -10 16 -24 9 -34 -16
-12 -31 -32 -33 -28 -3 2 16 -3 24 -16 26 -16 3 -18 0 -11 -30z m75 -72 c0
-15 -18 -31 -26 -23 -7 7 7 37 17 37 5 0 9 -6 9 -14z"/>
<path d="M7303 6399 c4 -15 2 -19 -9 -15 -8 3 -21 9 -29 12 -25 10 -17 -23 10
-44 14 -11 28 -34 31 -51 4 -17 11 -34 15 -37 15 -9 21 21 10 49 -7 18 -7 28
1 33 14 9 28 -15 28 -48 0 -18 5 -28 14 -28 24 0 26 15 9 66 -16 49 -30 67
-45 58 -5 -3 -11 2 -14 10 -9 24 -27 19 -21 -5z"/>
<path d="M7075 6231 c-7 -13 2 -18 48 -26 20 -4 41 -14 46 -23 5 -9 15 -13 25
-9 29 11 17 24 -43 46 -66 24 -68 24 -76 12z"/>
<path d="M7905 6110 c-11 -5 -46 -16 -77 -25 -40 -11 -58 -21 -58 -32 0 -13 8
-15 58 -8 31 4 68 9 81 10 29 2 47 25 38 49 -7 18 -13 19 -42 6z"/>
<path d="M6990 6049 c0 -5 12 -11 28 -15 54 -12 57 -13 36 -29 -19 -14 -19
-14 1 -15 11 0 30 -3 42 -6 18 -5 25 0 34 20 9 19 9 30 1 38 -13 13 -142 20
-142 7z"/>
<path d="M7055 5893 c-72 -17 -100 -47 -91 -96 9 -49 20 -61 42 -49 11 6 45
22 77 37 38 18 57 32 57 44 0 30 -12 81 -19 80 -3 -1 -33 -8 -66 -16z"/>
<path d="M7139 5703 c-42 -34 -68 -65 -68 -78 0 -5 13 -25 30 -43 32 -35 59
-37 59 -4 0 10 14 40 32 66 24 37 29 52 21 65 -16 26 -38 24 -74 -6z"/>
<path d="M7742 5692 c11 -18 19 -35 16 -37 -2 -2 -22 5 -46 15 -43 20 -55 12
-24 -16 51 -45 118 -94 130 -94 7 0 15 8 18 18 3 9 9 24 13 32 11 21 -3 56
-28 69 -11 6 -22 20 -26 31 -5 15 -14 19 -40 17 l-33 -2 20 -33z"/>
<path d="M7326 5628 c-6 -18 -17 -68 -23 -105 -3 -18 -9 -33 -14 -33 -13 0
-11 -26 4 -38 23 -18 71 -23 91 -9 14 10 20 29 22 71 2 32 6 66 9 76 6 20 -10
32 -58 44 -18 4 -29 2 -31 -6z"/>
<path d="M7550 5573 c0 -54 10 -85 25 -79 21 8 26 -6 7 -20 -16 -12 -16 -14
-1 -29 15 -16 18 -15 38 13 11 17 21 33 21 36 0 11 -74 116 -82 116 -4 0 -8
-17 -8 -37z"/>
<path d="M7660 6655 c0 -19 44 -48 66 -43 29 5 27 26 -5 42 -38 20 -61 20 -61
1z"/>
<path d="M8182 6624 c1 -9 9 -19 16 -22 9 -3 13 2 10 14 -1 9 -9 19 -16 22 -9
3 -13 -2 -10 -14z"/>
<path d="M5620 6508 c10 -43 31 -88 41 -88 5 0 -2 27 -13 60 -23 64 -41 81
-28 28z"/>
<path d="M4116 6521 c-4 -5 -2 -12 3 -15 5 -4 12 -2 15 3 4 5 2 12 -3 15 -5 4
-12 2 -15 -3z"/>
<path d="M4084 6277 c-3 -9 -4 -26 -1 -37 3 -11 1 -23 -4 -26 -5 -3 -9 -9 -9
-14 0 -6 9 -2 20 7 21 19 26 49 10 73 -8 12 -10 12 -16 -3z"/>
<path d="M5653 6264 c-6 -16 11 -34 35 -34 19 0 14 28 -8 40 -16 9 -22 8 -27
-6z"/>
<path d="M6060 5501 c-63 -6 -64 -6 -25 -13 109 -20 125 -21 125 -5 0 12 -27
32 -33 25 -1 -1 -31 -4 -67 -7z"/>
<path d="M690 5392 c0 -5 9 -17 19 -26 22 -20 40 -4 21 19 -13 16 -40 20 -40
7z"/>
<path d="M8653 5193 c-12 -2 -34 -18 -48 -34 -38 -46 -32 -93 23 -198 l23 -43
25 23 c27 25 32 41 9 33 -23 -9 -19 43 10 132 14 42 25 80 25 85 0 9 -27 10
-67 2z"/>
<path d="M7052 4553 c-32 -12 -37 -59 -42 -368 l-5 -309 -45 -17 c-25 -9 -71
-32 -104 -52 -32 -20 -63 -38 -70 -40 -6 -3 1 -17 17 -34 35 -37 79 -183 113
-370 6 -31 34 -55 56 -50 23 6 35 -17 19 -37 -6 -7 -7 -16 -3 -20 4 -4 -5 -2
-20 5 -38 17 -81 89 -108 179 -13 41 -31 104 -42 140 -25 81 -52 120 -84 120
-29 0 -41 24 -24 45 18 22 4 31 -24 15 -14 -7 -36 -10 -49 -6 -21 5 -25 2 -30
-24 -5 -24 -14 -31 -46 -40 -33 -9 -40 -15 -45 -44 -8 -42 -36 -68 -84 -75
-31 -5 -39 -12 -48 -40 -13 -42 -32 -56 -98 -75 -74 -22 -181 -88 -179 -110 1
-13 -4 -16 -18 -13 -11 3 -16 1 -13 -5 8 -13 -35 -43 -66 -44 -152 -7 -205 -5
-208 5 -5 14 -42 15 -42 0 0 -7 -10 -9 -25 -5 -18 5 -25 2 -25 -9 0 -9 9 -15
25 -15 14 0 25 -6 25 -14 0 -10 24 -14 98 -18 137 -7 161 -23 45 -31 -49 -4
-109 -13 -132 -22 -53 -18 -91 -19 -91 -2 0 9 -23 12 -84 12 -46 0 -82 -4 -79
-8 3 -4 -8 -5 -24 -2 -24 5 -25 5 -9 -5 10 -7 30 -14 45 -16 14 -2 55 -8 91
-13 36 -6 90 -15 120 -21 60 -11 73 -13 203 -29 105 -12 185 -5 183 16 0 7 11
21 26 30 25 16 29 16 45 1 23 -19 69 -31 94 -23 25 8 14 25 -17 25 -27 0 -32
15 -8 24 23 9 54 7 54 -3 0 -13 35 -20 51 -10 7 4 13 20 14 35 0 16 6 28 15
30 8 1 23 5 33 9 24 10 21 -2 -8 -29 -26 -24 -36 -47 -12 -27 10 8 17 7 25 -1
16 -16 54 -18 48 -3 -2 7 0 18 5 26 7 12 9 12 10 -1 1 -8 1 -19 0 -24 -1 -5
13 -24 30 -43 33 -33 33 -33 8 -34 -13 0 -40 -7 -59 -15 l-35 -14 57 3 56 4 7
-36 c4 -20 24 -78 46 -128 21 -51 39 -97 39 -102 0 -6 6 -14 13 -18 7 -4 34
-35 59 -68 56 -74 69 -86 137 -122 30 -16 58 -36 62 -44 23 -48 32 -125 36
-329 5 -248 -2 -363 -23 -384 -11 -12 -9 -15 14 -24 53 -21 73 -23 87 -12 7 6
42 15 76 20 55 8 64 7 76 -9 13 -20 62 -18 75 3 9 14 16 97 34 396 16 266 16
262 -7 307 -19 38 -21 48 -11 82 7 21 12 50 12 63 0 14 6 31 14 37 11 9 12 6
9 -16 -3 -23 -2 -25 6 -11 7 10 19 14 31 11 14 -4 20 0 20 11 0 9 15 22 33 30
42 18 67 47 110 126 61 113 89 262 64 335 -11 31 -20 41 -47 48 -40 10 -89
-10 -120 -51 -18 -23 -20 -24 -15 -6 8 30 -41 41 -51 12 -6 -21 11 -48 32 -48
17 0 18 -14 2 -39 -9 -15 -9 -28 0 -60 10 -33 10 -46 -2 -73 -9 -21 -15 -26
-15 -15 -1 10 -5 15 -11 12 -5 -3 -10 -29 -10 -58 0 -47 1 -49 15 -31 14 19
14 19 15 -1 0 -20 -19 -59 -20 -40 -1 26 -20 -24 -20 -52 0 -17 -4 -35 -10
-38 -5 -3 -10 -3 -11 2 -4 65 -12 141 -19 193 -11 71 -41 342 -45 405 -4 50
-6 131 -6 265 0 147 -3 173 -27 206 -21 29 -26 58 -36 224 -3 47 -1 69 4 60 7
-11 10 -6 10 18 0 18 4 42 10 52 11 21 15 237 5 295 -4 22 -13 44 -21 48 -8 4
-14 16 -14 26 0 14 -9 18 -52 18 -29 1 -59 -1 -66 -4z m-298 -1337 c33 -66 48
-85 100 -122 33 -25 75 -56 91 -70 17 -14 37 -29 45 -34 13 -8 12 -15 -7 -49
-22 -38 -22 -39 -3 -56 15 -14 17 -21 9 -32 -6 -7 -9 -26 -5 -43 7 -39 -6 -38
-38 3 -104 127 -126 159 -126 176 0 12 -16 41 -35 67 -19 25 -35 51 -35 59 0
7 -6 15 -14 18 -8 3 -20 18 -28 34 -10 22 -21 29 -51 31 -21 2 -45 -2 -54 -10
-13 -10 -18 -8 -34 12 -19 26 -22 29 -58 61 -12 10 -21 23 -21 27 0 16 142 28
185 16 37 -10 43 -17 79 -88z m-394 -16 c0 -5 -9 -10 -20 -10 -11 0 -20 5 -20
10 0 6 9 10 20 10 11 0 20 -4 20 -10z"/>
<path d="M6585 3281 c-3 -5 -1 -12 5 -16 5 -3 10 1 10 9 0 18 -6 21 -15 7z"/>
<path d="M6610 4133 c0 -15 25 -73 31 -73 14 0 20 39 9 60 -10 18 -40 29 -40
13z"/>
<path d="M4720 3346 c0 -7 28 -25 63 -40 34 -15 73 -33 87 -41 55 -29 164 -65
200 -65 21 0 80 -11 131 -24 52 -14 95 -23 98 -21 10 11 -32 35 -71 41 -23 3
-52 9 -63 14 -11 5 -38 14 -60 21 -22 6 -62 22 -90 34 -27 13 -68 26 -89 30
-22 3 -58 15 -80 24 -105 46 -126 51 -126 27z"/>
<path d="M5760 3350 c0 -5 6 -10 14 -10 8 0 18 5 21 10 3 6 -3 10 -14 10 -12
0 -21 -4 -21 -10z"/>
<path d="M7395 3343 c-43 -7 -55 -20 -55 -62 0 -30 19 -85 20 -57 0 5 7 3 15
-4 13 -11 20 -10 42 6 14 11 30 30 34 42 7 20 6 22 -14 17 -25 -7 -78 27 -64
41 4 4 13 -1 21 -11 16 -23 46 -13 46 15 0 11 -3 19 -7 19 -5 -1 -21 -4 -38
-6z"/>
<path d="M5888 3333 c6 -2 18 -2 25 0 6 3 1 5 -13 5 -14 0 -19 -2 -12 -5z"/>
<path d="M5475 3230 c3 -5 8 -10 11 -10 2 0 4 5 4 10 0 6 -5 10 -11 10 -5 0
-7 -4 -4 -10z"/>
<path d="M5360 3211 c0 -9 44 -17 73 -12 4 0 7 -4 7 -11 0 -9 3 -9 12 0 16 16
9 21 -45 28 -32 5 -47 3 -47 -5z"/>
<path d="M5705 3210 c3 -5 10 -10 16 -10 5 0 9 5 9 10 0 6 -7 10 -16 10 -8 0
-12 -4 -9 -10z"/>
<path d="M4615 3158 c-4 -9 -5 -25 -3 -35 5 -22 50 -21 105 2 30 13 33 17 23
30 -13 16 -53 11 -78 -8 -9 -7 -17 -5 -27 9 -12 17 -14 18 -20 2z"/>
<path d="M5352 3138 c3 -7 24 -17 49 -24 24 -7 58 -18 75 -25 32 -12 84 -6 84
11 0 5 -12 12 -27 15 -16 3 -44 10 -63 15 -69 18 -122 21 -118 8z"/>
<path d="M7352 3050 c0 -19 2 -27 5 -17 2 9 2 25 0 35 -3 9 -5 1 -5 -18z"/>
<path d="M4886 2841 c-9 -14 4 -41 20 -41 15 0 17 10 8 34 -7 18 -20 21 -28 7z"/>
<path d="M4670 2772 c0 -21 33 -56 43 -45 13 12 7 51 -9 57 -26 10 -34 7 -34
-12z"/>
<path d="M7495 2746 c-15 -11 -17 -18 -9 -26 17 -17 49 -8 49 14 0 25 -16 30
-40 12z"/>
<path d="M7462 2659 c-12 -18 -11 -24 1 -36 13 -13 16 -11 25 15 15 44 -3 58
-26 21z"/>
<path d="M5158 2273 c-42 -5 -45 -10 -24 -38 12 -17 16 -17 30 -5 14 11 44 54
34 48 -2 -1 -20 -3 -40 -5z"/>
<path d="M5510 2242 c0 -21 42 -44 65 -36 20 8 19 17 -3 37 -25 23 -62 22 -62
-1z"/>
<path d="M5260 2180 c-28 -17 21 -69 54 -57 25 10 20 46 -10 57 -30 12 -26 12
-44 0z"/>
<path d="M6190 1935 c0 -22 47 -37 100 -32 78 7 265 -22 475 -73 52 -12 95
-13 95 0 0 6 -10 10 -22 10 -13 0 -45 8 -73 19 -27 10 -68 21 -90 25 -22 3
-112 16 -200 30 -237 36 -285 40 -285 21z"/>
<path d="M1364 1473 c-13 -13 -20 -14 -35 -5 -10 7 -27 12 -38 12 -21 0 -81
-63 -81 -84 0 -15 -17 -24 -68 -36 -24 -6 -34 -4 -41 7 -11 21 -65 9 -57 -12
2 -7 0 -15 -5 -17 -13 -4 6 -91 20 -96 6 -2 11 -10 11 -18 0 -7 19 -22 43 -33
120 -53 148 -64 217 -82 135 -36 184 -45 238 -41 36 3 52 8 52 18 0 8 -3 14
-7 14 -5 0 -14 4 -21 9 -11 7 -11 12 -2 27 10 16 9 27 -4 58 -19 47 -15 55 13
27 26 -26 41 -27 41 -2 0 11 3 26 6 35 9 22 -58 86 -84 79 -23 -6 -52 32 -30
39 6 2 8 10 4 16 -4 7 -16 10 -27 7 -11 -4 -19 -2 -19 4 0 6 -7 11 -16 11 -8
0 -13 4 -10 8 9 15 -22 49 -54 60 -24 9 -33 8 -46 -5z m-24 -125 c0 -12 -38
-10 -45 2 -12 19 5 30 25 17 11 -6 20 -15 20 -19z m78 -31 c7 -8 7 -18 2 -27
-10 -17 -15 -13 -24 18 -8 24 5 30 22 9z m122 -7 c0 -5 -7 -10 -15 -10 -8 0
-15 5 -15 10 0 6 7 10 15 10 8 0 15 -4 15 -10z m-22 -98 c12 -2 22 -8 22 -14
0 -5 -7 -7 -16 -4 -9 3 -20 6 -24 6 -18 0 -30 39 -23 72 l8 33 5 -45 c4 -37 9
-46 28 -48z m29 56 c-3 -8 -6 -5 -6 6 -1 11 2 17 5 13 3 -3 4 -12 1 -19z m23
-88 c0 -5 -2 -10 -4 -10 -3 0 -8 5 -11 10 -3 6 -1 10 4 10 6 0 11 -4 11 -10z"/>
<path d="M8023 1261 c-23 -11 -31 -21 -27 -33 12 -40 -105 -118 -166 -110 -8
1 -31 -5 -50 -13 -26 -10 -100 -15 -288 -18 -139 -2 -255 -7 -259 -10 -13 -13
19 -34 70 -46 52 -11 416 -32 429 -25 10 6 125 17 176 17 42 -1 43 0 37 25
l-6 26 22 -19 22 -20 -6 33 c-5 27 -4 32 12 32 10 0 22 7 25 16 5 13 9 14 21
4 17 -14 35 -5 35 17 0 11 5 9 18 -7 43 -53 57 25 20 100 -26 50 -38 55 -85
31z"/>
<path d="M2035 1208 c-16 -6 -38 -19 -49 -30 -11 -10 -28 -18 -37 -18 -26 0
-32 -18 -10 -29 10 -6 43 -31 72 -57 67 -57 105 -76 194 -98 39 -10 99 -35
136 -57 69 -41 173 -69 192 -50 18 18 -2 57 -42 79 -47 26 -98 83 -117 129
-12 29 -19 33 -52 34 -20 1 -50 5 -67 9 -29 7 -29 8 10 10 22 2 52 2 67 1 22
-2 27 1 22 14 -20 52 -233 94 -319 63z"/>
<path d="M8160 1125 c0 -8 7 -15 16 -15 14 0 14 3 4 15 -7 8 -14 15 -16 15 -2
0 -4 -7 -4 -15z"/>
<path d="M8214 1126 c-3 -8 5 -25 17 -37 17 -17 21 -18 16 -5 -4 10 -7 26 -7
37 0 22 -18 26 -26 5z"/>
<path d="M985 1080 c-3 -5 1 -10 9 -10 9 0 16 5 16 10 0 6 -4 10 -9 10 -6 0
-13 -4 -16 -10z"/>
<path d="M7620 921 c0 -5 7 -11 15 -15 9 -3 15 0 15 9 0 8 -7 15 -15 15 -8 0
-15 -4 -15 -9z"/>
<path d="M6104 849 c-8 -13 13 -29 37 -29 14 0 29 19 29 36 0 9 -59 3 -66 -7z"/>
<path d="M1420 610 c0 -5 5 -10 10 -10 6 0 10 5 10 10 0 6 -4 10 -10 10 -5 0
-10 -4 -10 -10z"/>
<path d="M6606 531 c-3 -5 -21 -12 -40 -15 -59 -11 -88 -61 -95 -165 l-6 -74
-83 2 c-46 1 -117 -5 -163 -14 -75 -16 -87 -16 -177 0 -68 12 -147 17 -262 16
-91 0 -192 3 -225 8 -36 5 -82 5 -116 -1 -33 -6 -70 -6 -90 -1 -39 10 -159 5
-159 -6 0 -19 59 -30 187 -37 95 -4 145 -11 162 -21 16 -10 36 -13 65 -9 26 4
57 1 81 -7 60 -21 235 -41 301 -34 33 3 102 12 154 19 194 26 348 12 429 -40
l23 -16 -43 -13 c-24 -7 -60 -13 -79 -12 -36 0 -107 -15 -117 -25 -19 -19 70
-38 117 -26 19 5 96 14 170 20 209 16 259 29 325 83 39 32 61 135 39 181 -7
16 -11 32 -8 37 3 5 -3 12 -13 16 -10 4 -24 15 -31 25 -7 10 -19 18 -26 18 -8
0 -19 7 -27 16 -15 19 -63 12 -90 -12 -23 -21 -96 -10 -103 14 -3 9 -19 23
-36 30 -18 8 -30 21 -30 33 0 19 -24 26 -34 10z"/>
<path d="M7280 360 c0 -5 7 -10 16 -10 8 0 12 5 9 10 -3 6 -10 10 -16 10 -5 0
-9 -4 -9 -10z"/>
<path d="M3549 210 c-14 -4 -48 -20 -74 -36 -27 -15 -67 -33 -90 -39 -43 -10
-45 -13 -45 -44 0 -21 10 -26 90 -47 30 -8 63 -22 72 -31 26 -24 46 -3 30 31
-10 23 -9 26 25 37 44 14 82 47 67 57 -17 11 -23 39 -12 50 6 6 7 15 4 21 -8
12 -29 13 -67 1z"/>
<path d="M2323 157 c3 -9 0 -32 -8 -51 -8 -20 -15 -40 -15 -45 0 -19 49 -63
67 -59 15 3 17 12 15 48 -2 25 -11 53 -20 63 -9 11 -17 26 -17 35 0 8 -6 17
-14 20 -10 3 -12 0 -8 -11z"/>
<path d="M3666 71 c-4 -7 -5 -15 -2 -18 9 -9 19 4 14 18 -4 11 -6 11 -12 0z"/>
<path d="M3650 30 c0 -5 5 -10 11 -10 5 0 7 5 4 10 -3 6 -8 10 -11 10 -2 0 -4
-4 -4 -10z"/>
</g>
</svg>
